G04 #@! TF.GenerationSoftware,KiCad,Pcbnew,(2018-02-15 revision 29b28de31)-makepkg*
G04 #@! TF.CreationDate,2019-05-03T22:38:47+03:00*
G04 #@! TF.ProjectId,din_power_atm90e26,64696E5F706F7765725F61746D393065,rev?*
G04 #@! TF.SameCoordinates,Original*
G04 #@! TF.FileFunction,Copper,L2,Bot,Signal*
G04 #@! TF.FilePolarity,Positive*
%FSLAX46Y46*%
G04 Gerber Fmt 4.6, Leading zero omitted, Abs format (unit mm)*
G04 Created by KiCad (PCBNEW (2018-02-15 revision 29b28de31)-makepkg) date 05/03/19 22:38:47*
%MOMM*%
%LPD*%
G01*
G04 APERTURE LIST*
%ADD10C,1.422400*%
%ADD11C,1.600000*%
%ADD12C,1.800000*%
%ADD13R,1.800000X1.800000*%
%ADD14R,1.308000X1.308000*%
%ADD15R,1.900000X1.900000*%
%ADD16C,1.900000*%
%ADD17O,3.600000X1.800000*%
%ADD18R,3.600000X1.800000*%
%ADD19R,0.500000X0.900000*%
%ADD20R,0.900000X1.700000*%
%ADD21R,0.800000X0.750000*%
%ADD22C,0.800000*%
%ADD23C,0.500000*%
%ADD24C,1.000000*%
%ADD25C,0.250000*%
%ADD26C,0.254000*%
G04 APERTURE END LIST*
D10*
X169378000Y-62367400D03*
X169378000Y-64367400D03*
X169378000Y-66367400D03*
X169378000Y-68367400D03*
X169378000Y-70367400D03*
X169378000Y-72367400D03*
X171378000Y-71367400D03*
X171378000Y-69367400D03*
X171378000Y-67367400D03*
X171378000Y-65367400D03*
X171378000Y-63367400D03*
X166878000Y-72317400D03*
X166878000Y-70317400D03*
X166878000Y-68317400D03*
X166878000Y-66317400D03*
X166878000Y-64317400D03*
X166878000Y-62317400D03*
X164878000Y-63317400D03*
X164878000Y-65317400D03*
X164878000Y-67317400D03*
X164878000Y-69317400D03*
X164878000Y-71317400D03*
X171378000Y-53367400D03*
X171378000Y-55367400D03*
X171378000Y-57367400D03*
X171378000Y-59367400D03*
X169378000Y-58367400D03*
X169378000Y-56367400D03*
X169378000Y-54367400D03*
X164878000Y-59317400D03*
X164878000Y-57317400D03*
X164878000Y-55317400D03*
X164878000Y-53317400D03*
X166878000Y-54317400D03*
X166878000Y-56317400D03*
X166878000Y-58317400D03*
D11*
X117450000Y-74500000D03*
X122450000Y-74500000D03*
D12*
X135310000Y-51850000D03*
X132770000Y-51850000D03*
X130230000Y-51850000D03*
D13*
X127690000Y-51850000D03*
D14*
X159288000Y-73389000D03*
X159288000Y-57989000D03*
X129888000Y-68189000D03*
X129888000Y-63189000D03*
D15*
X179705000Y-64823400D03*
D16*
X179705000Y-67323400D03*
X179705000Y-69823400D03*
X179705000Y-72323400D03*
X182205000Y-64823400D03*
X182205000Y-67323400D03*
X182205000Y-69823400D03*
X182205000Y-72323400D03*
X182205000Y-58150000D03*
X182205000Y-55650000D03*
X182205000Y-53150000D03*
X182205000Y-50650000D03*
X179705000Y-58150000D03*
X179705000Y-55650000D03*
X179705000Y-53150000D03*
D15*
X179705000Y-50650000D03*
D17*
X110490000Y-74574400D03*
X110490000Y-69494400D03*
X110490000Y-64414400D03*
X110490000Y-59334400D03*
X110490000Y-54254400D03*
D18*
X110490000Y-49174400D03*
D19*
X185950000Y-64825000D03*
X184450000Y-64825000D03*
X185950000Y-72325000D03*
X184450000Y-72325000D03*
X185950000Y-69825000D03*
X184450000Y-69825000D03*
X175950000Y-72325000D03*
X177450000Y-72325000D03*
X175950000Y-69825000D03*
X177450000Y-69825000D03*
X175950000Y-67325000D03*
X177450000Y-67325000D03*
X184450000Y-67325000D03*
X185950000Y-67325000D03*
X175950000Y-64825000D03*
X177450000Y-64825000D03*
D20*
X144750000Y-65100000D03*
X147650000Y-65100000D03*
X150550000Y-75550000D03*
X153450000Y-75550000D03*
X153450000Y-70450000D03*
X150550000Y-70450000D03*
X153450000Y-65100000D03*
X150550000Y-65100000D03*
X147650000Y-75550000D03*
X144750000Y-75550000D03*
X144750000Y-70450000D03*
X147650000Y-70450000D03*
X141850000Y-70450000D03*
X138950000Y-70450000D03*
X138950000Y-75550000D03*
X141850000Y-75550000D03*
X118950000Y-67950000D03*
X116050000Y-67950000D03*
X118950000Y-52700000D03*
X116050000Y-52700000D03*
X138950000Y-65100000D03*
X141850000Y-65100000D03*
X118950000Y-60300000D03*
X116050000Y-60300000D03*
D21*
X163050000Y-73150000D03*
X161550000Y-73150000D03*
X162000000Y-65050000D03*
X160500000Y-65050000D03*
X162200000Y-68550000D03*
X160700000Y-68550000D03*
D19*
X163050000Y-75050000D03*
X161550000Y-75050000D03*
X162000000Y-66800000D03*
X160500000Y-66800000D03*
X162200000Y-70300000D03*
X160700000Y-70300000D03*
D22*
X150000000Y-46500000D03*
X150000000Y-47750000D03*
X150000000Y-49000000D03*
X146000000Y-49000000D03*
X146000000Y-47750000D03*
X146000000Y-46500000D03*
X143250000Y-52800000D03*
X143250000Y-51575000D03*
X143250000Y-50350000D03*
X139475000Y-52675000D03*
X139475000Y-51500000D03*
X139475000Y-50325000D03*
X125368300Y-67343700D03*
X152883500Y-56809500D03*
X152178200Y-52365300D03*
X160113700Y-63317400D03*
X174997500Y-72730200D03*
X158950000Y-66850000D03*
X159000000Y-70450000D03*
X163185900Y-59225800D03*
X172926600Y-61586700D03*
X175299600Y-76275900D03*
X170649800Y-48419300D03*
D23*
X136006001Y-53300001D02*
X136760001Y-52546001D01*
X134605693Y-53291695D02*
X134613999Y-53300001D01*
X133859999Y-51153999D02*
X133859999Y-51397231D01*
X133277308Y-52357308D02*
X132770000Y-51850000D01*
X134408694Y-53488694D02*
X134605693Y-53291695D01*
X161811500Y-63188500D02*
X153681900Y-55058900D01*
X133419990Y-51837240D02*
X133419990Y-52214626D01*
X134613999Y-53300001D02*
X136006001Y-53300001D01*
X162135100Y-59239400D02*
X162135100Y-62864900D01*
X162135100Y-62864900D02*
X161811500Y-63188500D01*
X135978900Y-55058900D02*
X134408694Y-53488694D01*
X153681900Y-55058900D02*
X135978900Y-55058900D01*
X136760001Y-52546001D02*
X136760001Y-51153999D01*
X136760001Y-51153999D02*
X136006001Y-50399999D01*
X136006001Y-50399999D02*
X134613999Y-50399999D01*
X134613999Y-50399999D02*
X133859999Y-51153999D01*
X133859999Y-51397231D02*
X133419990Y-51837240D01*
X133419990Y-52214626D02*
X133277308Y-52357308D01*
D24*
X113790300Y-52390600D02*
X114099700Y-52700000D01*
X113790300Y-49174400D02*
X113790300Y-52390600D01*
X110490000Y-49174400D02*
X113790300Y-49174400D01*
X116050000Y-52700000D02*
X114099700Y-52700000D01*
X113790300Y-59990600D02*
X114099700Y-60300000D01*
X113790300Y-59334400D02*
X113790300Y-59990600D01*
X116050000Y-60300000D02*
X114099700Y-60300000D01*
X110490000Y-59334400D02*
X113790300Y-59334400D01*
X113790300Y-69234600D02*
X115074900Y-67950000D01*
X113790300Y-69494400D02*
X113790300Y-69234600D01*
X110490000Y-69494400D02*
X113790300Y-69494400D01*
X116050000Y-67950000D02*
X115562500Y-67950000D01*
X115562500Y-67950000D02*
X115074900Y-67950000D01*
X123123000Y-67343700D02*
X125368300Y-67343700D01*
X121337000Y-65557700D02*
X123123000Y-67343700D01*
X117878900Y-65557700D02*
X121337000Y-65557700D01*
X115562500Y-67874100D02*
X117878900Y-65557700D01*
X115562500Y-67950000D02*
X115562500Y-67874100D01*
D23*
X185950000Y-73075000D02*
X185950000Y-72325000D01*
X184200000Y-74825000D02*
X185950000Y-73075000D01*
X177500000Y-74825000D02*
X184200000Y-74825000D01*
X175950000Y-73275000D02*
X177500000Y-74825000D01*
X175950000Y-72325000D02*
X175950000Y-73275000D01*
X185950000Y-69825000D02*
X185950000Y-72325000D01*
X185950000Y-67325000D02*
X185950000Y-69825000D01*
X185950000Y-64825000D02*
X185950000Y-67325000D01*
X175950000Y-69825000D02*
X175950000Y-67325000D01*
X175950000Y-72325000D02*
X175950000Y-69825000D01*
X163050000Y-73150000D02*
X163050000Y-75050000D01*
X163050000Y-71150000D02*
X163050000Y-73150000D01*
X162200000Y-70300000D02*
X163050000Y-71150000D01*
X162200000Y-70300000D02*
X162200000Y-68550000D01*
X162200000Y-67000000D02*
X162000000Y-66800000D01*
X162200000Y-68550000D02*
X162200000Y-67000000D01*
X162000000Y-66800000D02*
X162000000Y-65050000D01*
X175950000Y-67325000D02*
X175950000Y-64825000D01*
X162267000Y-65317400D02*
X162135100Y-65185300D01*
X164878000Y-65317400D02*
X162267000Y-65317400D01*
X162135100Y-65185300D02*
X162000000Y-65050000D01*
X162135100Y-54187200D02*
X162135100Y-59239400D01*
X166487100Y-49835200D02*
X162135100Y-54187200D01*
X169692700Y-49835200D02*
X166487100Y-49835200D01*
X175950000Y-56092500D02*
X169692700Y-49835200D01*
X175950000Y-64825000D02*
X175950000Y-56092500D01*
X162135100Y-59239400D02*
X162135100Y-65185300D01*
X138608700Y-60228700D02*
X130230000Y-51850000D01*
X149464300Y-60228700D02*
X138608700Y-60228700D01*
X152883500Y-56809500D02*
X149464300Y-60228700D01*
X154266000Y-73389000D02*
X159288000Y-73389000D01*
X152449600Y-71572600D02*
X154266000Y-73389000D01*
X152449600Y-63214000D02*
X152449600Y-71572600D01*
X149464300Y-60228700D02*
X152449600Y-63214000D01*
X146137900Y-46325000D02*
X127690000Y-46325000D01*
X152178200Y-52365300D02*
X146137900Y-46325000D01*
X127690000Y-46325000D02*
X127690000Y-51850000D01*
X159288000Y-57989000D02*
X158083700Y-57989000D01*
X152460000Y-52365300D02*
X152178200Y-52365300D01*
X158083700Y-57989000D02*
X152460000Y-52365300D01*
X153350300Y-55859200D02*
X135647814Y-55859200D01*
X160113700Y-62622600D02*
X153350300Y-55859200D01*
X160113700Y-63317400D02*
X160113700Y-62622600D01*
X133466001Y-53300001D02*
X134916002Y-51850000D01*
X134916002Y-51850000D02*
X135310000Y-51850000D01*
X133466001Y-53677387D02*
X133466001Y-53300001D01*
X135647814Y-55859200D02*
X133466001Y-53677387D01*
D25*
X179703000Y-64825000D02*
X179704000Y-64824200D01*
X177450000Y-64825000D02*
X179703000Y-64825000D01*
X179704000Y-64824200D02*
X179705000Y-64823400D01*
X171378000Y-71560400D02*
X171378000Y-71367400D01*
X175368200Y-75550600D02*
X171378000Y-71560400D01*
X175600100Y-75550600D02*
X175368200Y-75550600D01*
X176476400Y-76426900D02*
X175600100Y-75550600D01*
X184868300Y-76426900D02*
X176476400Y-76426900D01*
X187542700Y-73752500D02*
X184868300Y-76426900D01*
X187542700Y-63818100D02*
X187542700Y-73752500D01*
X186750900Y-63026300D02*
X187542700Y-63818100D01*
X181501900Y-63026300D02*
X186750900Y-63026300D01*
X179704000Y-64824200D02*
X181501900Y-63026300D01*
X179703000Y-67325000D02*
X179705000Y-67323400D01*
X177450000Y-67325000D02*
X179703000Y-67325000D01*
X177450000Y-67325000D02*
X176874700Y-67325000D01*
X176874700Y-64217200D02*
X176874700Y-67325000D01*
X178544700Y-62547200D02*
X176874700Y-64217200D01*
X186916100Y-62547200D02*
X178544700Y-62547200D01*
X188000300Y-63631400D02*
X186916100Y-62547200D01*
X188000300Y-73933200D02*
X188000300Y-63631400D01*
X184932300Y-77001200D02*
X188000300Y-73933200D01*
X174011800Y-77001200D02*
X184932300Y-77001200D01*
X169378000Y-72367400D02*
X174011800Y-77001200D01*
X184450000Y-64825000D02*
X184355200Y-64825000D01*
X182207000Y-64825000D02*
X182205000Y-64823400D01*
X184355200Y-64825000D02*
X182207000Y-64825000D01*
X172535600Y-68525000D02*
X171378000Y-67367400D01*
X172535600Y-72037200D02*
X172535600Y-68525000D01*
X175598700Y-75100300D02*
X172535600Y-72037200D01*
X175786700Y-75100300D02*
X175598700Y-75100300D01*
X176662400Y-75976000D02*
X175786700Y-75100300D01*
X184682300Y-75976000D02*
X176662400Y-75976000D01*
X187092400Y-73565900D02*
X184682300Y-75976000D01*
X187092400Y-64004700D02*
X187092400Y-73565900D01*
X186564300Y-63476600D02*
X187092400Y-64004700D01*
X185305500Y-63476600D02*
X186564300Y-63476600D01*
X184355200Y-64426900D02*
X185305500Y-63476600D01*
X184355200Y-64825000D02*
X184355200Y-64426900D01*
X182207000Y-67325000D02*
X182205000Y-67323400D01*
X184450000Y-67325000D02*
X182207000Y-67325000D01*
X179703000Y-69825000D02*
X179705000Y-69823400D01*
X177450000Y-69825000D02*
X179703000Y-69825000D01*
X182207000Y-69825000D02*
X182205000Y-69823400D01*
X184450000Y-69825000D02*
X182207000Y-69825000D01*
X184450000Y-69825000D02*
X185025300Y-69825000D01*
X171733100Y-59367400D02*
X171378000Y-59367400D01*
X173651900Y-61286200D02*
X171733100Y-59367400D01*
X173651900Y-72480500D02*
X173651900Y-61286200D01*
X175821400Y-74650000D02*
X173651900Y-72480500D01*
X175973300Y-74650000D02*
X175821400Y-74650000D01*
X176834900Y-75511600D02*
X175973300Y-74650000D01*
X184509800Y-75511600D02*
X176834900Y-75511600D01*
X186642100Y-73379300D02*
X184509800Y-75511600D01*
X186642100Y-64191300D02*
X186642100Y-73379300D01*
X186377700Y-63926900D02*
X186642100Y-64191300D01*
X185534400Y-63926900D02*
X186377700Y-63926900D01*
X185025300Y-64436000D02*
X185534400Y-63926900D01*
X185025300Y-69825000D02*
X185025300Y-64436000D01*
X182207000Y-72325000D02*
X182205000Y-72323400D01*
X184450000Y-72325000D02*
X182207000Y-72325000D01*
X174997500Y-60986900D02*
X174997500Y-72730200D01*
X171378000Y-57367400D02*
X174997500Y-60986900D01*
X179703000Y-72325000D02*
X179705000Y-72323400D01*
X177450000Y-72325000D02*
X179703000Y-72325000D01*
X160500000Y-66800000D02*
X160500000Y-65050000D01*
X160450000Y-66850000D02*
X160500000Y-66800000D01*
X158950000Y-66850000D02*
X160450000Y-66850000D01*
X160450000Y-65100000D02*
X160500000Y-65050000D01*
X153450000Y-65100000D02*
X160450000Y-65100000D01*
X161550000Y-76550000D02*
X161550000Y-75050000D01*
X162000000Y-77000000D02*
X161550000Y-76550000D01*
X163750000Y-77000000D02*
X162000000Y-77000000D01*
X164878000Y-75872000D02*
X163750000Y-77000000D01*
X164878000Y-71317400D02*
X164878000Y-75872000D01*
X161550000Y-75050000D02*
X161550000Y-73150000D01*
X159350000Y-75550000D02*
X159475000Y-75550000D01*
X153450000Y-75550000D02*
X159350000Y-75550000D01*
X160550000Y-75550000D02*
X159475000Y-75550000D01*
X161050000Y-75050000D02*
X160550000Y-75550000D01*
X161550000Y-75050000D02*
X161050000Y-75050000D01*
X159475000Y-75550000D02*
X159350000Y-75550000D01*
X160675000Y-68575000D02*
X160700000Y-68550000D01*
X160700000Y-70300000D02*
X160700000Y-68550000D01*
X153450000Y-70450000D02*
X159000000Y-70450000D01*
X160550000Y-70450000D02*
X160700000Y-70300000D01*
X159000000Y-70450000D02*
X160550000Y-70450000D01*
D23*
X163185900Y-57009500D02*
X164878000Y-55317400D01*
X163185900Y-59225800D02*
X163185900Y-57009500D01*
D24*
X120900300Y-52700000D02*
X126350300Y-58150000D01*
X118950000Y-52700000D02*
X120900300Y-52700000D01*
X126350300Y-58150000D02*
X130049700Y-58150000D01*
X130049700Y-58150000D02*
X136999700Y-65100000D01*
X136999700Y-65100000D02*
X138950000Y-65100000D01*
X141850000Y-65100000D02*
X144750000Y-65100000D01*
X141850000Y-75550000D02*
X144750000Y-75550000D01*
X128500300Y-75550000D02*
X138950000Y-75550000D01*
X120900300Y-67950000D02*
X128500300Y-75550000D01*
X118950000Y-67950000D02*
X120900300Y-67950000D01*
X131893100Y-65343400D02*
X136999700Y-70450000D01*
X125943700Y-65343400D02*
X131893100Y-65343400D01*
X120900300Y-60300000D02*
X125943700Y-65343400D01*
X118950000Y-60300000D02*
X120900300Y-60300000D01*
X138950000Y-70450000D02*
X136999700Y-70450000D01*
X147650000Y-75550000D02*
X150550000Y-75550000D01*
X141850000Y-70450000D02*
X144750000Y-70450000D01*
X147650000Y-65100000D02*
X150550000Y-65100000D01*
X147650000Y-70450000D02*
X150550000Y-70450000D01*
D25*
X174820600Y-76275900D02*
X175299600Y-76275900D01*
X170289900Y-71745200D02*
X174820600Y-76275900D01*
X170289900Y-70921500D02*
X170289900Y-71745200D01*
X170466100Y-70745300D02*
X170289900Y-70921500D01*
X170466100Y-69921400D02*
X170466100Y-70745300D01*
X170289900Y-69745200D02*
X170466100Y-69921400D01*
X170289900Y-68921500D02*
X170289900Y-69745200D01*
X170466100Y-68745300D02*
X170289900Y-68921500D01*
X170466100Y-67921400D02*
X170466100Y-68745300D01*
X170289900Y-67745200D02*
X170466100Y-67921400D01*
X170289900Y-66921500D02*
X170289900Y-67745200D01*
X170466100Y-66745300D02*
X170289900Y-66921500D01*
X170466100Y-65921400D02*
X170466100Y-66745300D01*
X170289900Y-65745200D02*
X170466100Y-65921400D01*
X170289900Y-64921500D02*
X170289900Y-65745200D01*
X170466100Y-64745300D02*
X170289900Y-64921500D01*
X170466100Y-63921400D02*
X170466100Y-64745300D01*
X170289900Y-63745200D02*
X170466100Y-63921400D01*
X170289900Y-62921500D02*
X170289900Y-63745200D01*
X171624700Y-61586700D02*
X170289900Y-62921500D01*
X172926600Y-61586700D02*
X171624700Y-61586700D01*
X179705000Y-57474500D02*
X170649800Y-48419300D01*
X179705000Y-58150000D02*
X179705000Y-57474500D01*
D26*
G36*
X163739800Y-63543802D02*
X163913080Y-63962139D01*
X164158596Y-64207655D01*
X164114210Y-64374005D01*
X164878000Y-65137795D01*
X164892143Y-65123653D01*
X165071748Y-65303258D01*
X165057605Y-65317400D01*
X165071748Y-65331543D01*
X164892143Y-65511148D01*
X164878000Y-65497005D01*
X164114210Y-66260795D01*
X164158596Y-66427145D01*
X163913080Y-66672661D01*
X163739800Y-67090998D01*
X163739800Y-67543802D01*
X163913080Y-67962139D01*
X164233261Y-68282320D01*
X164317952Y-68317400D01*
X164233261Y-68352480D01*
X163913080Y-68672661D01*
X163739800Y-69090998D01*
X163739800Y-69543802D01*
X163913080Y-69962139D01*
X164233261Y-70282320D01*
X164317952Y-70317400D01*
X164233261Y-70352480D01*
X163913080Y-70672661D01*
X163739800Y-71090998D01*
X163739800Y-71543802D01*
X163913080Y-71962139D01*
X164233261Y-72282320D01*
X164326000Y-72320734D01*
X164326001Y-75643353D01*
X163521355Y-76448000D01*
X162228646Y-76448000D01*
X162102000Y-76321355D01*
X162102000Y-75811759D01*
X162107850Y-75807850D01*
X162189549Y-75685577D01*
X162261673Y-75859699D01*
X162440302Y-76038327D01*
X162673691Y-76135000D01*
X162766250Y-76135000D01*
X162925000Y-75976250D01*
X162925000Y-75177000D01*
X163175000Y-75177000D01*
X163175000Y-75976250D01*
X163333750Y-76135000D01*
X163426309Y-76135000D01*
X163659698Y-76038327D01*
X163838327Y-75859699D01*
X163935000Y-75626310D01*
X163935000Y-75335750D01*
X163776250Y-75177000D01*
X163175000Y-75177000D01*
X162925000Y-75177000D01*
X162903000Y-75177000D01*
X162903000Y-74923000D01*
X162925000Y-74923000D01*
X162925000Y-74123750D01*
X163175000Y-74123750D01*
X163175000Y-74923000D01*
X163776250Y-74923000D01*
X163935000Y-74764250D01*
X163935000Y-74473690D01*
X163838327Y-74240301D01*
X163704802Y-74106776D01*
X163809698Y-74063327D01*
X163988327Y-73884699D01*
X164085000Y-73651310D01*
X164085000Y-73435750D01*
X163926250Y-73277000D01*
X163177000Y-73277000D01*
X163177000Y-74001250D01*
X163237250Y-74061500D01*
X163175000Y-74123750D01*
X162925000Y-74123750D01*
X162862750Y-74061500D01*
X162923000Y-74001250D01*
X162923000Y-73277000D01*
X162903000Y-73277000D01*
X162903000Y-73023000D01*
X162923000Y-73023000D01*
X162923000Y-72298750D01*
X163177000Y-72298750D01*
X163177000Y-73023000D01*
X163926250Y-73023000D01*
X164085000Y-72864250D01*
X164085000Y-72648690D01*
X163988327Y-72415301D01*
X163809698Y-72236673D01*
X163576309Y-72140000D01*
X163335750Y-72140000D01*
X163177000Y-72298750D01*
X162923000Y-72298750D01*
X162764250Y-72140000D01*
X162523691Y-72140000D01*
X162290302Y-72236673D01*
X162139142Y-72387832D01*
X162116607Y-72372775D01*
X161950000Y-72339635D01*
X161150000Y-72339635D01*
X161127000Y-72344210D01*
X161127000Y-71145281D01*
X161257850Y-71057850D01*
X161339549Y-70935577D01*
X161411673Y-71109699D01*
X161590302Y-71288327D01*
X161823691Y-71385000D01*
X161916250Y-71385000D01*
X162075000Y-71226250D01*
X162075000Y-70427000D01*
X162325000Y-70427000D01*
X162325000Y-71226250D01*
X162483750Y-71385000D01*
X162576309Y-71385000D01*
X162809698Y-71288327D01*
X162988327Y-71109699D01*
X163085000Y-70876310D01*
X163085000Y-70585750D01*
X162926250Y-70427000D01*
X162325000Y-70427000D01*
X162075000Y-70427000D01*
X162053000Y-70427000D01*
X162053000Y-70173000D01*
X162075000Y-70173000D01*
X162075000Y-69373750D01*
X162325000Y-69373750D01*
X162325000Y-70173000D01*
X162926250Y-70173000D01*
X163085000Y-70014250D01*
X163085000Y-69723690D01*
X162988327Y-69490301D01*
X162960525Y-69462500D01*
X163138327Y-69284699D01*
X163235000Y-69051310D01*
X163235000Y-68835750D01*
X163076250Y-68677000D01*
X162327000Y-68677000D01*
X162327000Y-69371750D01*
X162325000Y-69373750D01*
X162075000Y-69373750D01*
X162073000Y-69371750D01*
X162073000Y-68677000D01*
X162053000Y-68677000D01*
X162053000Y-68423000D01*
X162073000Y-68423000D01*
X162073000Y-68403000D01*
X162327000Y-68403000D01*
X162327000Y-68423000D01*
X163076250Y-68423000D01*
X163235000Y-68264250D01*
X163235000Y-68048690D01*
X163138327Y-67815301D01*
X162959698Y-67636673D01*
X162803887Y-67572134D01*
X162885000Y-67376310D01*
X162885000Y-67085750D01*
X162726250Y-66927000D01*
X162125000Y-66927000D01*
X162125000Y-66947000D01*
X161875000Y-66947000D01*
X161875000Y-66927000D01*
X161853000Y-66927000D01*
X161853000Y-66673000D01*
X161875000Y-66673000D01*
X161875000Y-65873750D01*
X162125000Y-65873750D01*
X162125000Y-66673000D01*
X162726250Y-66673000D01*
X162885000Y-66514250D01*
X162885000Y-66223690D01*
X162788327Y-65990301D01*
X162760525Y-65962500D01*
X162938327Y-65784699D01*
X163035000Y-65551310D01*
X163035000Y-65335750D01*
X162876250Y-65177000D01*
X162127000Y-65177000D01*
X162127000Y-65871750D01*
X162125000Y-65873750D01*
X161875000Y-65873750D01*
X161873000Y-65871750D01*
X161873000Y-65177000D01*
X161853000Y-65177000D01*
X161853000Y-65121845D01*
X163519428Y-65121845D01*
X163548007Y-65656633D01*
X163697679Y-66017973D01*
X163934605Y-66081190D01*
X164698395Y-65317400D01*
X163934605Y-64553610D01*
X163697679Y-64616827D01*
X163519428Y-65121845D01*
X161853000Y-65121845D01*
X161853000Y-64923000D01*
X161873000Y-64923000D01*
X161873000Y-64198750D01*
X162127000Y-64198750D01*
X162127000Y-64923000D01*
X162876250Y-64923000D01*
X163035000Y-64764250D01*
X163035000Y-64548690D01*
X162938327Y-64315301D01*
X162759698Y-64136673D01*
X162526309Y-64040000D01*
X162285750Y-64040000D01*
X162127000Y-64198750D01*
X161873000Y-64198750D01*
X161714250Y-64040000D01*
X161473691Y-64040000D01*
X161240302Y-64136673D01*
X161127000Y-64249974D01*
X161127000Y-63127000D01*
X163739800Y-63127000D01*
X163739800Y-63543802D01*
X163739800Y-63543802D01*
G37*
X163739800Y-63543802D02*
X163913080Y-63962139D01*
X164158596Y-64207655D01*
X164114210Y-64374005D01*
X164878000Y-65137795D01*
X164892143Y-65123653D01*
X165071748Y-65303258D01*
X165057605Y-65317400D01*
X165071748Y-65331543D01*
X164892143Y-65511148D01*
X164878000Y-65497005D01*
X164114210Y-66260795D01*
X164158596Y-66427145D01*
X163913080Y-66672661D01*
X163739800Y-67090998D01*
X163739800Y-67543802D01*
X163913080Y-67962139D01*
X164233261Y-68282320D01*
X164317952Y-68317400D01*
X164233261Y-68352480D01*
X163913080Y-68672661D01*
X163739800Y-69090998D01*
X163739800Y-69543802D01*
X163913080Y-69962139D01*
X164233261Y-70282320D01*
X164317952Y-70317400D01*
X164233261Y-70352480D01*
X163913080Y-70672661D01*
X163739800Y-71090998D01*
X163739800Y-71543802D01*
X163913080Y-71962139D01*
X164233261Y-72282320D01*
X164326000Y-72320734D01*
X164326001Y-75643353D01*
X163521355Y-76448000D01*
X162228646Y-76448000D01*
X162102000Y-76321355D01*
X162102000Y-75811759D01*
X162107850Y-75807850D01*
X162189549Y-75685577D01*
X162261673Y-75859699D01*
X162440302Y-76038327D01*
X162673691Y-76135000D01*
X162766250Y-76135000D01*
X162925000Y-75976250D01*
X162925000Y-75177000D01*
X163175000Y-75177000D01*
X163175000Y-75976250D01*
X163333750Y-76135000D01*
X163426309Y-76135000D01*
X163659698Y-76038327D01*
X163838327Y-75859699D01*
X163935000Y-75626310D01*
X163935000Y-75335750D01*
X163776250Y-75177000D01*
X163175000Y-75177000D01*
X162925000Y-75177000D01*
X162903000Y-75177000D01*
X162903000Y-74923000D01*
X162925000Y-74923000D01*
X162925000Y-74123750D01*
X163175000Y-74123750D01*
X163175000Y-74923000D01*
X163776250Y-74923000D01*
X163935000Y-74764250D01*
X163935000Y-74473690D01*
X163838327Y-74240301D01*
X163704802Y-74106776D01*
X163809698Y-74063327D01*
X163988327Y-73884699D01*
X164085000Y-73651310D01*
X164085000Y-73435750D01*
X163926250Y-73277000D01*
X163177000Y-73277000D01*
X163177000Y-74001250D01*
X163237250Y-74061500D01*
X163175000Y-74123750D01*
X162925000Y-74123750D01*
X162862750Y-74061500D01*
X162923000Y-74001250D01*
X162923000Y-73277000D01*
X162903000Y-73277000D01*
X162903000Y-73023000D01*
X162923000Y-73023000D01*
X162923000Y-72298750D01*
X163177000Y-72298750D01*
X163177000Y-73023000D01*
X163926250Y-73023000D01*
X164085000Y-72864250D01*
X164085000Y-72648690D01*
X163988327Y-72415301D01*
X163809698Y-72236673D01*
X163576309Y-72140000D01*
X163335750Y-72140000D01*
X163177000Y-72298750D01*
X162923000Y-72298750D01*
X162764250Y-72140000D01*
X162523691Y-72140000D01*
X162290302Y-72236673D01*
X162139142Y-72387832D01*
X162116607Y-72372775D01*
X161950000Y-72339635D01*
X161150000Y-72339635D01*
X161127000Y-72344210D01*
X161127000Y-71145281D01*
X161257850Y-71057850D01*
X161339549Y-70935577D01*
X161411673Y-71109699D01*
X161590302Y-71288327D01*
X161823691Y-71385000D01*
X161916250Y-71385000D01*
X162075000Y-71226250D01*
X162075000Y-70427000D01*
X162325000Y-70427000D01*
X162325000Y-71226250D01*
X162483750Y-71385000D01*
X162576309Y-71385000D01*
X162809698Y-71288327D01*
X162988327Y-71109699D01*
X163085000Y-70876310D01*
X163085000Y-70585750D01*
X162926250Y-70427000D01*
X162325000Y-70427000D01*
X162075000Y-70427000D01*
X162053000Y-70427000D01*
X162053000Y-70173000D01*
X162075000Y-70173000D01*
X162075000Y-69373750D01*
X162325000Y-69373750D01*
X162325000Y-70173000D01*
X162926250Y-70173000D01*
X163085000Y-70014250D01*
X163085000Y-69723690D01*
X162988327Y-69490301D01*
X162960525Y-69462500D01*
X163138327Y-69284699D01*
X163235000Y-69051310D01*
X163235000Y-68835750D01*
X163076250Y-68677000D01*
X162327000Y-68677000D01*
X162327000Y-69371750D01*
X162325000Y-69373750D01*
X162075000Y-69373750D01*
X162073000Y-69371750D01*
X162073000Y-68677000D01*
X162053000Y-68677000D01*
X162053000Y-68423000D01*
X162073000Y-68423000D01*
X162073000Y-68403000D01*
X162327000Y-68403000D01*
X162327000Y-68423000D01*
X163076250Y-68423000D01*
X163235000Y-68264250D01*
X163235000Y-68048690D01*
X163138327Y-67815301D01*
X162959698Y-67636673D01*
X162803887Y-67572134D01*
X162885000Y-67376310D01*
X162885000Y-67085750D01*
X162726250Y-66927000D01*
X162125000Y-66927000D01*
X162125000Y-66947000D01*
X161875000Y-66947000D01*
X161875000Y-66927000D01*
X161853000Y-66927000D01*
X161853000Y-66673000D01*
X161875000Y-66673000D01*
X161875000Y-65873750D01*
X162125000Y-65873750D01*
X162125000Y-66673000D01*
X162726250Y-66673000D01*
X162885000Y-66514250D01*
X162885000Y-66223690D01*
X162788327Y-65990301D01*
X162760525Y-65962500D01*
X162938327Y-65784699D01*
X163035000Y-65551310D01*
X163035000Y-65335750D01*
X162876250Y-65177000D01*
X162127000Y-65177000D01*
X162127000Y-65871750D01*
X162125000Y-65873750D01*
X161875000Y-65873750D01*
X161873000Y-65871750D01*
X161873000Y-65177000D01*
X161853000Y-65177000D01*
X161853000Y-65121845D01*
X163519428Y-65121845D01*
X163548007Y-65656633D01*
X163697679Y-66017973D01*
X163934605Y-66081190D01*
X164698395Y-65317400D01*
X163934605Y-64553610D01*
X163697679Y-64616827D01*
X163519428Y-65121845D01*
X161853000Y-65121845D01*
X161853000Y-64923000D01*
X161873000Y-64923000D01*
X161873000Y-64198750D01*
X162127000Y-64198750D01*
X162127000Y-64923000D01*
X162876250Y-64923000D01*
X163035000Y-64764250D01*
X163035000Y-64548690D01*
X162938327Y-64315301D01*
X162759698Y-64136673D01*
X162526309Y-64040000D01*
X162285750Y-64040000D01*
X162127000Y-64198750D01*
X161873000Y-64198750D01*
X161714250Y-64040000D01*
X161473691Y-64040000D01*
X161240302Y-64136673D01*
X161127000Y-64249974D01*
X161127000Y-63127000D01*
X163739800Y-63127000D01*
X163739800Y-63543802D01*
G36*
X176522823Y-63788432D02*
X176492365Y-63808783D01*
X176326309Y-63740000D01*
X176233750Y-63740000D01*
X176075000Y-63898750D01*
X176075000Y-64698000D01*
X176097000Y-64698000D01*
X176097000Y-64952000D01*
X176075000Y-64952000D01*
X176075000Y-65751250D01*
X176233750Y-65910000D01*
X176322701Y-65910000D01*
X176322701Y-66240000D01*
X176233750Y-66240000D01*
X176075000Y-66398750D01*
X176075000Y-67198000D01*
X176097000Y-67198000D01*
X176097000Y-67452000D01*
X176075000Y-67452000D01*
X176075000Y-68251250D01*
X176233750Y-68410000D01*
X176326309Y-68410000D01*
X176559698Y-68313327D01*
X176738327Y-68134699D01*
X176810451Y-67960577D01*
X176892150Y-68082850D01*
X177033393Y-68177225D01*
X177200000Y-68210365D01*
X177700000Y-68210365D01*
X177866607Y-68177225D01*
X178007850Y-68082850D01*
X178102225Y-67941607D01*
X178115076Y-67877000D01*
X178443855Y-67877000D01*
X178537636Y-68103408D01*
X178924992Y-68490764D01*
X179124493Y-68573400D01*
X178924992Y-68656036D01*
X178537636Y-69043392D01*
X178442529Y-69273000D01*
X178115076Y-69273000D01*
X178102225Y-69208393D01*
X178007850Y-69067150D01*
X177866607Y-68972775D01*
X177700000Y-68939635D01*
X177200000Y-68939635D01*
X177033393Y-68972775D01*
X176892150Y-69067150D01*
X176810451Y-69189423D01*
X176738327Y-69015301D01*
X176559698Y-68836673D01*
X176326309Y-68740000D01*
X176233750Y-68740000D01*
X176075000Y-68898750D01*
X176075000Y-69698000D01*
X176097000Y-69698000D01*
X176097000Y-69952000D01*
X176075000Y-69952000D01*
X176075000Y-70751250D01*
X176233750Y-70910000D01*
X176326309Y-70910000D01*
X176559698Y-70813327D01*
X176738327Y-70634699D01*
X176810451Y-70460577D01*
X176892150Y-70582850D01*
X177033393Y-70677225D01*
X177200000Y-70710365D01*
X177700000Y-70710365D01*
X177866607Y-70677225D01*
X178007850Y-70582850D01*
X178102225Y-70441607D01*
X178115076Y-70377000D01*
X178443855Y-70377000D01*
X178537636Y-70603408D01*
X178924992Y-70990764D01*
X179124493Y-71073400D01*
X178924992Y-71156036D01*
X178537636Y-71543392D01*
X178442529Y-71773000D01*
X178115076Y-71773000D01*
X178102225Y-71708393D01*
X178007850Y-71567150D01*
X177866607Y-71472775D01*
X177700000Y-71439635D01*
X177200000Y-71439635D01*
X177033393Y-71472775D01*
X176892150Y-71567150D01*
X176810451Y-71689423D01*
X176738327Y-71515301D01*
X176559698Y-71336673D01*
X176326309Y-71240000D01*
X176233750Y-71240000D01*
X176075000Y-71398750D01*
X176075000Y-72198000D01*
X176097000Y-72198000D01*
X176097000Y-72452000D01*
X176075000Y-72452000D01*
X176075000Y-73251250D01*
X176233750Y-73410000D01*
X176326309Y-73410000D01*
X176559698Y-73313327D01*
X176738327Y-73134699D01*
X176810451Y-72960577D01*
X176892150Y-73082850D01*
X177033393Y-73177225D01*
X177200000Y-73210365D01*
X177700000Y-73210365D01*
X177866607Y-73177225D01*
X178007850Y-73082850D01*
X178102225Y-72941607D01*
X178115076Y-72877000D01*
X178443855Y-72877000D01*
X178537636Y-73103408D01*
X178924992Y-73490764D01*
X179431098Y-73700400D01*
X179978902Y-73700400D01*
X180485008Y-73490764D01*
X180872364Y-73103408D01*
X180955000Y-72903907D01*
X181037636Y-73103408D01*
X181424992Y-73490764D01*
X181931098Y-73700400D01*
X182478902Y-73700400D01*
X182985008Y-73490764D01*
X183372364Y-73103408D01*
X183466145Y-72877000D01*
X183784924Y-72877000D01*
X183797775Y-72941607D01*
X183892150Y-73082850D01*
X184033393Y-73177225D01*
X184200000Y-73210365D01*
X184700000Y-73210365D01*
X184866607Y-73177225D01*
X185007850Y-73082850D01*
X185089549Y-72960577D01*
X185161673Y-73134699D01*
X185340302Y-73313327D01*
X185573691Y-73410000D01*
X185666250Y-73410000D01*
X185822998Y-73253252D01*
X185822998Y-73410000D01*
X185830754Y-73410000D01*
X184281155Y-74959600D01*
X177063546Y-74959600D01*
X176402068Y-74298123D01*
X176371270Y-74252030D01*
X176188680Y-74130028D01*
X176055603Y-74103557D01*
X175407540Y-73455494D01*
X175465958Y-73431297D01*
X175512572Y-73384683D01*
X175573691Y-73410000D01*
X175666250Y-73410000D01*
X175825000Y-73251250D01*
X175825000Y-72452000D01*
X175803000Y-72452000D01*
X175803000Y-72198000D01*
X175825000Y-72198000D01*
X175825000Y-71398750D01*
X175666250Y-71240000D01*
X175573691Y-71240000D01*
X175549500Y-71250020D01*
X175549500Y-70899980D01*
X175573691Y-70910000D01*
X175666250Y-70910000D01*
X175825000Y-70751250D01*
X175825000Y-69952000D01*
X175803000Y-69952000D01*
X175803000Y-69698000D01*
X175825000Y-69698000D01*
X175825000Y-68898750D01*
X175666250Y-68740000D01*
X175573691Y-68740000D01*
X175549500Y-68750020D01*
X175549500Y-68399980D01*
X175573691Y-68410000D01*
X175666250Y-68410000D01*
X175825000Y-68251250D01*
X175825000Y-67452000D01*
X175803000Y-67452000D01*
X175803000Y-67198000D01*
X175825000Y-67198000D01*
X175825000Y-66398750D01*
X175666250Y-66240000D01*
X175573691Y-66240000D01*
X175549500Y-66250020D01*
X175549500Y-65899980D01*
X175573691Y-65910000D01*
X175666250Y-65910000D01*
X175825000Y-65751250D01*
X175825000Y-64952000D01*
X175803000Y-64952000D01*
X175803000Y-64698000D01*
X175825000Y-64698000D01*
X175825000Y-63898750D01*
X175666250Y-63740000D01*
X175573691Y-63740000D01*
X175549500Y-63750020D01*
X175549500Y-63127000D01*
X177184255Y-63127000D01*
X176522823Y-63788432D01*
X176522823Y-63788432D01*
G37*
X176522823Y-63788432D02*
X176492365Y-63808783D01*
X176326309Y-63740000D01*
X176233750Y-63740000D01*
X176075000Y-63898750D01*
X176075000Y-64698000D01*
X176097000Y-64698000D01*
X176097000Y-64952000D01*
X176075000Y-64952000D01*
X176075000Y-65751250D01*
X176233750Y-65910000D01*
X176322701Y-65910000D01*
X176322701Y-66240000D01*
X176233750Y-66240000D01*
X176075000Y-66398750D01*
X176075000Y-67198000D01*
X176097000Y-67198000D01*
X176097000Y-67452000D01*
X176075000Y-67452000D01*
X176075000Y-68251250D01*
X176233750Y-68410000D01*
X176326309Y-68410000D01*
X176559698Y-68313327D01*
X176738327Y-68134699D01*
X176810451Y-67960577D01*
X176892150Y-68082850D01*
X177033393Y-68177225D01*
X177200000Y-68210365D01*
X177700000Y-68210365D01*
X177866607Y-68177225D01*
X178007850Y-68082850D01*
X178102225Y-67941607D01*
X178115076Y-67877000D01*
X178443855Y-67877000D01*
X178537636Y-68103408D01*
X178924992Y-68490764D01*
X179124493Y-68573400D01*
X178924992Y-68656036D01*
X178537636Y-69043392D01*
X178442529Y-69273000D01*
X178115076Y-69273000D01*
X178102225Y-69208393D01*
X178007850Y-69067150D01*
X177866607Y-68972775D01*
X177700000Y-68939635D01*
X177200000Y-68939635D01*
X177033393Y-68972775D01*
X176892150Y-69067150D01*
X176810451Y-69189423D01*
X176738327Y-69015301D01*
X176559698Y-68836673D01*
X176326309Y-68740000D01*
X176233750Y-68740000D01*
X176075000Y-68898750D01*
X176075000Y-69698000D01*
X176097000Y-69698000D01*
X176097000Y-69952000D01*
X176075000Y-69952000D01*
X176075000Y-70751250D01*
X176233750Y-70910000D01*
X176326309Y-70910000D01*
X176559698Y-70813327D01*
X176738327Y-70634699D01*
X176810451Y-70460577D01*
X176892150Y-70582850D01*
X177033393Y-70677225D01*
X177200000Y-70710365D01*
X177700000Y-70710365D01*
X177866607Y-70677225D01*
X178007850Y-70582850D01*
X178102225Y-70441607D01*
X178115076Y-70377000D01*
X178443855Y-70377000D01*
X178537636Y-70603408D01*
X178924992Y-70990764D01*
X179124493Y-71073400D01*
X178924992Y-71156036D01*
X178537636Y-71543392D01*
X178442529Y-71773000D01*
X178115076Y-71773000D01*
X178102225Y-71708393D01*
X178007850Y-71567150D01*
X177866607Y-71472775D01*
X177700000Y-71439635D01*
X177200000Y-71439635D01*
X177033393Y-71472775D01*
X176892150Y-71567150D01*
X176810451Y-71689423D01*
X176738327Y-71515301D01*
X176559698Y-71336673D01*
X176326309Y-71240000D01*
X176233750Y-71240000D01*
X176075000Y-71398750D01*
X176075000Y-72198000D01*
X176097000Y-72198000D01*
X176097000Y-72452000D01*
X176075000Y-72452000D01*
X176075000Y-73251250D01*
X176233750Y-73410000D01*
X176326309Y-73410000D01*
X176559698Y-73313327D01*
X176738327Y-73134699D01*
X176810451Y-72960577D01*
X176892150Y-73082850D01*
X177033393Y-73177225D01*
X177200000Y-73210365D01*
X177700000Y-73210365D01*
X177866607Y-73177225D01*
X178007850Y-73082850D01*
X178102225Y-72941607D01*
X178115076Y-72877000D01*
X178443855Y-72877000D01*
X178537636Y-73103408D01*
X178924992Y-73490764D01*
X179431098Y-73700400D01*
X179978902Y-73700400D01*
X180485008Y-73490764D01*
X180872364Y-73103408D01*
X180955000Y-72903907D01*
X181037636Y-73103408D01*
X181424992Y-73490764D01*
X181931098Y-73700400D01*
X182478902Y-73700400D01*
X182985008Y-73490764D01*
X183372364Y-73103408D01*
X183466145Y-72877000D01*
X183784924Y-72877000D01*
X183797775Y-72941607D01*
X183892150Y-73082850D01*
X184033393Y-73177225D01*
X184200000Y-73210365D01*
X184700000Y-73210365D01*
X184866607Y-73177225D01*
X185007850Y-73082850D01*
X185089549Y-72960577D01*
X185161673Y-73134699D01*
X185340302Y-73313327D01*
X185573691Y-73410000D01*
X185666250Y-73410000D01*
X185822998Y-73253252D01*
X185822998Y-73410000D01*
X185830754Y-73410000D01*
X184281155Y-74959600D01*
X177063546Y-74959600D01*
X176402068Y-74298123D01*
X176371270Y-74252030D01*
X176188680Y-74130028D01*
X176055603Y-74103557D01*
X175407540Y-73455494D01*
X175465958Y-73431297D01*
X175512572Y-73384683D01*
X175573691Y-73410000D01*
X175666250Y-73410000D01*
X175825000Y-73251250D01*
X175825000Y-72452000D01*
X175803000Y-72452000D01*
X175803000Y-72198000D01*
X175825000Y-72198000D01*
X175825000Y-71398750D01*
X175666250Y-71240000D01*
X175573691Y-71240000D01*
X175549500Y-71250020D01*
X175549500Y-70899980D01*
X175573691Y-70910000D01*
X175666250Y-70910000D01*
X175825000Y-70751250D01*
X175825000Y-69952000D01*
X175803000Y-69952000D01*
X175803000Y-69698000D01*
X175825000Y-69698000D01*
X175825000Y-68898750D01*
X175666250Y-68740000D01*
X175573691Y-68740000D01*
X175549500Y-68750020D01*
X175549500Y-68399980D01*
X175573691Y-68410000D01*
X175666250Y-68410000D01*
X175825000Y-68251250D01*
X175825000Y-67452000D01*
X175803000Y-67452000D01*
X175803000Y-67198000D01*
X175825000Y-67198000D01*
X175825000Y-66398750D01*
X175666250Y-66240000D01*
X175573691Y-66240000D01*
X175549500Y-66250020D01*
X175549500Y-65899980D01*
X175573691Y-65910000D01*
X175666250Y-65910000D01*
X175825000Y-65751250D01*
X175825000Y-64952000D01*
X175803000Y-64952000D01*
X175803000Y-64698000D01*
X175825000Y-64698000D01*
X175825000Y-63898750D01*
X175666250Y-63740000D01*
X175573691Y-63740000D01*
X175549500Y-63750020D01*
X175549500Y-63127000D01*
X177184255Y-63127000D01*
X176522823Y-63788432D01*
G36*
X186075000Y-64698000D02*
X186090100Y-64698000D01*
X186090100Y-64952000D01*
X186075000Y-64952000D01*
X186075000Y-65751250D01*
X186090100Y-65766350D01*
X186090100Y-66383650D01*
X186075000Y-66398750D01*
X186075000Y-67198000D01*
X186090100Y-67198000D01*
X186090100Y-67452000D01*
X186075000Y-67452000D01*
X186075000Y-68251250D01*
X186090100Y-68266350D01*
X186090101Y-68883649D01*
X186075000Y-68898750D01*
X186075000Y-69698000D01*
X186090101Y-69698000D01*
X186090101Y-69952000D01*
X186075000Y-69952000D01*
X186075000Y-70751250D01*
X186090101Y-70766351D01*
X186090101Y-71383649D01*
X186075000Y-71398750D01*
X186075000Y-72198000D01*
X186090101Y-72198000D01*
X186090101Y-72452000D01*
X186075000Y-72452000D01*
X186075000Y-72472000D01*
X185825000Y-72472000D01*
X185825000Y-72452000D01*
X185803000Y-72452000D01*
X185803000Y-72198000D01*
X185825000Y-72198000D01*
X185825000Y-71398750D01*
X185666250Y-71240000D01*
X185573691Y-71240000D01*
X185340302Y-71336673D01*
X185161673Y-71515301D01*
X185089549Y-71689423D01*
X185007850Y-71567150D01*
X184866607Y-71472775D01*
X184700000Y-71439635D01*
X184200000Y-71439635D01*
X184033393Y-71472775D01*
X183892150Y-71567150D01*
X183797775Y-71708393D01*
X183784924Y-71773000D01*
X183467471Y-71773000D01*
X183372364Y-71543392D01*
X182985008Y-71156036D01*
X182785507Y-71073400D01*
X182985008Y-70990764D01*
X183372364Y-70603408D01*
X183466145Y-70377000D01*
X183784924Y-70377000D01*
X183797775Y-70441607D01*
X183892150Y-70582850D01*
X184033393Y-70677225D01*
X184200000Y-70710365D01*
X184700000Y-70710365D01*
X184866607Y-70677225D01*
X185007850Y-70582850D01*
X185089549Y-70460577D01*
X185161673Y-70634699D01*
X185340302Y-70813327D01*
X185573691Y-70910000D01*
X185666250Y-70910000D01*
X185825000Y-70751250D01*
X185825000Y-69952000D01*
X185803000Y-69952000D01*
X185803000Y-69698000D01*
X185825000Y-69698000D01*
X185825000Y-68898750D01*
X185666250Y-68740000D01*
X185577300Y-68740000D01*
X185577300Y-68410000D01*
X185666250Y-68410000D01*
X185825000Y-68251250D01*
X185825000Y-67452000D01*
X185803000Y-67452000D01*
X185803000Y-67198000D01*
X185825000Y-67198000D01*
X185825000Y-66398750D01*
X185666250Y-66240000D01*
X185577300Y-66240000D01*
X185577300Y-65910000D01*
X185666250Y-65910000D01*
X185825000Y-65751250D01*
X185825000Y-64952000D01*
X185803000Y-64952000D01*
X185803000Y-64698000D01*
X185825000Y-64698000D01*
X185825000Y-64678000D01*
X186075000Y-64678000D01*
X186075000Y-64698000D01*
X186075000Y-64698000D01*
G37*
X186075000Y-64698000D02*
X186090100Y-64698000D01*
X186090100Y-64952000D01*
X186075000Y-64952000D01*
X186075000Y-65751250D01*
X186090100Y-65766350D01*
X186090100Y-66383650D01*
X186075000Y-66398750D01*
X186075000Y-67198000D01*
X186090100Y-67198000D01*
X186090100Y-67452000D01*
X186075000Y-67452000D01*
X186075000Y-68251250D01*
X186090100Y-68266350D01*
X186090101Y-68883649D01*
X186075000Y-68898750D01*
X186075000Y-69698000D01*
X186090101Y-69698000D01*
X186090101Y-69952000D01*
X186075000Y-69952000D01*
X186075000Y-70751250D01*
X186090101Y-70766351D01*
X186090101Y-71383649D01*
X186075000Y-71398750D01*
X186075000Y-72198000D01*
X186090101Y-72198000D01*
X186090101Y-72452000D01*
X186075000Y-72452000D01*
X186075000Y-72472000D01*
X185825000Y-72472000D01*
X185825000Y-72452000D01*
X185803000Y-72452000D01*
X185803000Y-72198000D01*
X185825000Y-72198000D01*
X185825000Y-71398750D01*
X185666250Y-71240000D01*
X185573691Y-71240000D01*
X185340302Y-71336673D01*
X185161673Y-71515301D01*
X185089549Y-71689423D01*
X185007850Y-71567150D01*
X184866607Y-71472775D01*
X184700000Y-71439635D01*
X184200000Y-71439635D01*
X184033393Y-71472775D01*
X183892150Y-71567150D01*
X183797775Y-71708393D01*
X183784924Y-71773000D01*
X183467471Y-71773000D01*
X183372364Y-71543392D01*
X182985008Y-71156036D01*
X182785507Y-71073400D01*
X182985008Y-70990764D01*
X183372364Y-70603408D01*
X183466145Y-70377000D01*
X183784924Y-70377000D01*
X183797775Y-70441607D01*
X183892150Y-70582850D01*
X184033393Y-70677225D01*
X184200000Y-70710365D01*
X184700000Y-70710365D01*
X184866607Y-70677225D01*
X185007850Y-70582850D01*
X185089549Y-70460577D01*
X185161673Y-70634699D01*
X185340302Y-70813327D01*
X185573691Y-70910000D01*
X185666250Y-70910000D01*
X185825000Y-70751250D01*
X185825000Y-69952000D01*
X185803000Y-69952000D01*
X185803000Y-69698000D01*
X185825000Y-69698000D01*
X185825000Y-68898750D01*
X185666250Y-68740000D01*
X185577300Y-68740000D01*
X185577300Y-68410000D01*
X185666250Y-68410000D01*
X185825000Y-68251250D01*
X185825000Y-67452000D01*
X185803000Y-67452000D01*
X185803000Y-67198000D01*
X185825000Y-67198000D01*
X185825000Y-66398750D01*
X185666250Y-66240000D01*
X185577300Y-66240000D01*
X185577300Y-65910000D01*
X185666250Y-65910000D01*
X185825000Y-65751250D01*
X185825000Y-64952000D01*
X185803000Y-64952000D01*
X185803000Y-64698000D01*
X185825000Y-64698000D01*
X185825000Y-64678000D01*
X186075000Y-64678000D01*
X186075000Y-64698000D01*
G36*
X143873000Y-53873000D02*
X134619035Y-53873000D01*
X134234729Y-53488694D01*
X134692759Y-53030665D01*
X135046043Y-53177000D01*
X135573957Y-53177000D01*
X136061685Y-52974976D01*
X136434976Y-52601685D01*
X136637000Y-52113957D01*
X136637000Y-51586043D01*
X136434976Y-51098315D01*
X136061685Y-50725024D01*
X135573957Y-50523000D01*
X135046043Y-50523000D01*
X134558315Y-50725024D01*
X134185024Y-51098315D01*
X134158770Y-51161698D01*
X134106643Y-51035852D01*
X133850159Y-50949446D01*
X132949605Y-51850000D01*
X132963748Y-51864143D01*
X132784143Y-52043748D01*
X132770000Y-52029605D01*
X132755858Y-52043748D01*
X132576253Y-51864143D01*
X132590395Y-51850000D01*
X132576253Y-51835858D01*
X132755858Y-51656253D01*
X132770000Y-51670395D01*
X133670554Y-50769841D01*
X133584148Y-50513357D01*
X133010664Y-50303542D01*
X132400540Y-50329161D01*
X132127000Y-50442465D01*
X132127000Y-47127000D01*
X143873000Y-47127000D01*
X143873000Y-53873000D01*
X143873000Y-53873000D01*
G37*
X143873000Y-53873000D02*
X134619035Y-53873000D01*
X134234729Y-53488694D01*
X134692759Y-53030665D01*
X135046043Y-53177000D01*
X135573957Y-53177000D01*
X136061685Y-52974976D01*
X136434976Y-52601685D01*
X136637000Y-52113957D01*
X136637000Y-51586043D01*
X136434976Y-51098315D01*
X136061685Y-50725024D01*
X135573957Y-50523000D01*
X135046043Y-50523000D01*
X134558315Y-50725024D01*
X134185024Y-51098315D01*
X134158770Y-51161698D01*
X134106643Y-51035852D01*
X133850159Y-50949446D01*
X132949605Y-51850000D01*
X132963748Y-51864143D01*
X132784143Y-52043748D01*
X132770000Y-52029605D01*
X132755858Y-52043748D01*
X132576253Y-51864143D01*
X132590395Y-51850000D01*
X132576253Y-51835858D01*
X132755858Y-51656253D01*
X132770000Y-51670395D01*
X133670554Y-50769841D01*
X133584148Y-50513357D01*
X133010664Y-50303542D01*
X132400540Y-50329161D01*
X132127000Y-50442465D01*
X132127000Y-47127000D01*
X143873000Y-47127000D01*
X143873000Y-53873000D01*
G36*
X151873000Y-54381900D02*
X145127000Y-54381900D01*
X145127000Y-46127000D01*
X151873000Y-46127000D01*
X151873000Y-54381900D01*
X151873000Y-54381900D01*
G37*
X151873000Y-54381900D02*
X145127000Y-54381900D01*
X145127000Y-46127000D01*
X151873000Y-46127000D01*
X151873000Y-54381900D01*
M02*
