G04 #@! TF.GenerationSoftware,KiCad,Pcbnew,(2018-02-15 revision 29b28de31)-makepkg*
G04 #@! TF.CreationDate,2019-05-03T22:38:47+03:00*
G04 #@! TF.ProjectId,din_power_atm90e26,64696E5F706F7765725F61746D393065,rev?*
G04 #@! TF.SameCoordinates,Original*
G04 #@! TF.FileFunction,Paste,Top*
G04 #@! TF.FilePolarity,Positive*
%FSLAX46Y46*%
G04 Gerber Fmt 4.6, Leading zero omitted, Abs format (unit mm)*
G04 Created by KiCad (PCBNEW (2018-02-15 revision 29b28de31)-makepkg) date 05/03/19 22:38:47*
%MOMM*%
%LPD*%
G01*
G04 APERTURE LIST*
%ADD10R,0.600000X1.550000*%
%ADD11R,1.200000X1.800000*%
%ADD12R,0.670000X1.000000*%
%ADD13R,0.640000X2.000000*%
%ADD14C,0.850000*%
%ADD15C,0.100000*%
%ADD16R,1.000000X1.500000*%
%ADD17R,1.000000X1.800000*%
%ADD18R,2.200000X1.840000*%
%ADD19C,1.000000*%
%ADD20R,0.900000X1.700000*%
%ADD21R,0.800000X0.750000*%
%ADD22R,1.270000X3.302000*%
G04 APERTURE END LIST*
D10*
X156075000Y-47575000D03*
X155075000Y-47575000D03*
X154075000Y-47575000D03*
X153075000Y-47575000D03*
D11*
X157375000Y-50100000D03*
X151775000Y-50100000D03*
D12*
X154975000Y-52775000D03*
X153225000Y-52775000D03*
D13*
X174355000Y-58450000D03*
X176895000Y-58450000D03*
X176895000Y-64750000D03*
X174355000Y-64750000D03*
X174355000Y-75575000D03*
X176895000Y-75575000D03*
X176895000Y-69275000D03*
X174355000Y-69275000D03*
X159505000Y-47400000D03*
X162045000Y-47400000D03*
X162045000Y-53700000D03*
X159505000Y-53700000D03*
X174355000Y-54500000D03*
X176895000Y-54500000D03*
X176895000Y-48200000D03*
X174355000Y-48200000D03*
D14*
X148025000Y-46658000D03*
D15*
G36*
X146925000Y-47083000D02*
X147525000Y-46233000D01*
X148525000Y-46233000D01*
X149125000Y-47083000D01*
X146925000Y-47083000D01*
X146925000Y-47083000D01*
G37*
D16*
X146525000Y-50805000D03*
D17*
X148025000Y-50658500D03*
D16*
X149525000Y-50805000D03*
D18*
X148025000Y-47991500D03*
D19*
X148025000Y-49401200D03*
D15*
G36*
X149125000Y-48901200D02*
X148425000Y-49901200D01*
X147625000Y-49901200D01*
X146925000Y-48901200D01*
X149125000Y-48901200D01*
X149125000Y-48901200D01*
G37*
D19*
X141400000Y-50023800D03*
D15*
G36*
X140300000Y-50523800D02*
X141000000Y-49523800D01*
X141800000Y-49523800D01*
X142500000Y-50523800D01*
X140300000Y-50523800D01*
X140300000Y-50523800D01*
G37*
D18*
X141400000Y-51433500D03*
D16*
X139900000Y-48620000D03*
D17*
X141400000Y-48766500D03*
D16*
X142900000Y-48620000D03*
D14*
X141400000Y-52767000D03*
D15*
G36*
X142500000Y-52342000D02*
X141900000Y-53192000D01*
X140900000Y-53192000D01*
X140300000Y-52342000D01*
X142500000Y-52342000D01*
X142500000Y-52342000D01*
G37*
D20*
X120498000Y-47367400D03*
X123398000Y-47367400D03*
D21*
X140400000Y-46600000D03*
X138900000Y-46600000D03*
X149025000Y-52675000D03*
X150525000Y-52675000D03*
X145525000Y-52675000D03*
X147025000Y-52675000D03*
X143900000Y-46600000D03*
X142400000Y-46600000D03*
D22*
X115867000Y-55021000D03*
X123233000Y-55021000D03*
X123233000Y-61498000D03*
X115867000Y-61498000D03*
X115867000Y-67900000D03*
X123233000Y-67900000D03*
M02*
