G04 #@! TF.GenerationSoftware,KiCad,Pcbnew,(2018-02-15 revision 29b28de31)-makepkg*
G04 #@! TF.CreationDate,2019-05-03T22:38:47+03:00*
G04 #@! TF.ProjectId,din_power_atm90e26,64696E5F706F7765725F61746D393065,rev?*
G04 #@! TF.SameCoordinates,Original*
G04 #@! TF.FileFunction,Legend,Top*
G04 #@! TF.FilePolarity,Positive*
%FSLAX46Y46*%
G04 Gerber Fmt 4.6, Leading zero omitted, Abs format (unit mm)*
G04 Created by KiCad (PCBNEW (2018-02-15 revision 29b28de31)-makepkg) date 05/03/19 22:38:47*
%MOMM*%
%LPD*%
G01*
G04 APERTURE LIST*
%ADD10C,0.120000*%
%ADD11C,0.200000*%
%ADD12C,0.150000*%
G04 APERTURE END LIST*
D10*
X157685000Y-48940000D02*
X157685000Y-47790000D01*
X157685000Y-47790000D02*
X156635000Y-47790000D01*
X156635000Y-47790000D02*
X156635000Y-46800000D01*
X151465000Y-48940000D02*
X151465000Y-47790000D01*
X151465000Y-47790000D02*
X152515000Y-47790000D01*
X156515000Y-50910000D02*
X152635000Y-50910000D01*
X154320000Y-53285000D02*
X153880000Y-53285000D01*
X154320000Y-52265000D02*
X153880000Y-52265000D01*
X173625000Y-59200000D02*
X173925000Y-59200000D01*
X173625000Y-64000000D02*
X173625000Y-59200000D01*
X173925000Y-64000000D02*
X173625000Y-64000000D01*
X177625000Y-64000000D02*
X177325000Y-64000000D01*
X177625000Y-59200000D02*
X177625000Y-64000000D01*
X177325000Y-59200000D02*
X177625000Y-59200000D01*
X173925000Y-64000000D02*
X173925000Y-65700000D01*
X173925000Y-74825000D02*
X173925000Y-76525000D01*
X177325000Y-70025000D02*
X177625000Y-70025000D01*
X177625000Y-70025000D02*
X177625000Y-74825000D01*
X177625000Y-74825000D02*
X177325000Y-74825000D01*
X173925000Y-74825000D02*
X173625000Y-74825000D01*
X173625000Y-74825000D02*
X173625000Y-70025000D01*
X173625000Y-70025000D02*
X173925000Y-70025000D01*
X158775000Y-48150000D02*
X159075000Y-48150000D01*
X158775000Y-52950000D02*
X158775000Y-48150000D01*
X159075000Y-52950000D02*
X158775000Y-52950000D01*
X162775000Y-52950000D02*
X162475000Y-52950000D01*
X162775000Y-48150000D02*
X162775000Y-52950000D01*
X162475000Y-48150000D02*
X162775000Y-48150000D01*
X159075000Y-52950000D02*
X159075000Y-54650000D01*
X173925000Y-53750000D02*
X173925000Y-55450000D01*
X177325000Y-48950000D02*
X177625000Y-48950000D01*
X177625000Y-48950000D02*
X177625000Y-53750000D01*
X177625000Y-53750000D02*
X177325000Y-53750000D01*
X173925000Y-53750000D02*
X173625000Y-53750000D01*
X173625000Y-53750000D02*
X173625000Y-48950000D01*
X173625000Y-48950000D02*
X173925000Y-48950000D01*
D11*
X163628000Y-75217400D02*
X163628000Y-50217400D01*
X163628000Y-75217400D02*
X172628000Y-75217400D01*
X172628000Y-50217400D02*
X163628000Y-50217400D01*
X172628000Y-50217400D02*
X172628000Y-75217400D01*
D10*
X114890000Y-75810000D02*
X114890000Y-73190000D01*
X125009999Y-75810000D02*
X125009999Y-73190000D01*
X125009999Y-73190000D02*
X114890000Y-73190000D01*
X125009999Y-75810000D02*
X114890000Y-75810000D01*
D11*
X125750000Y-53100000D02*
X125750000Y-46600000D01*
X125750000Y-46600000D02*
X137250000Y-46600000D01*
X137250000Y-46600000D02*
X137250000Y-53100000D01*
X137250000Y-53100000D02*
X125750000Y-53100000D01*
X131588000Y-63189000D02*
X132088000Y-62689000D01*
X132088000Y-62689000D02*
X132588000Y-63689000D01*
X132588000Y-63689000D02*
X133088000Y-63189000D01*
X131588000Y-68189000D02*
X132088000Y-67689000D01*
X132088000Y-67689000D02*
X132588000Y-68689000D01*
X132588000Y-68689000D02*
X133088000Y-68189000D01*
X157588000Y-72689000D02*
X157588000Y-73689000D01*
X158088000Y-73189000D02*
X157088000Y-73189000D01*
X158088000Y-58189000D02*
X157088000Y-58189000D01*
X127688000Y-75589000D02*
X161488000Y-75589000D01*
X161488000Y-75589000D02*
X161488000Y-55789000D01*
X161488000Y-55789000D02*
X127688000Y-55789000D01*
X127688000Y-55789000D02*
X127688000Y-75589000D01*
D10*
X192735000Y-62953400D02*
X183975000Y-62953400D01*
X183975000Y-62953400D02*
X183975000Y-74193400D01*
X183975000Y-74193400D02*
X192735000Y-74193400D01*
X192735000Y-74193400D02*
X192735000Y-62953400D01*
X183975000Y-64673400D02*
X183505000Y-64673400D01*
X183505000Y-64673400D02*
X183505000Y-64973400D01*
X183505000Y-64973400D02*
X183975000Y-64973400D01*
X183975000Y-64973400D02*
X183975000Y-64673400D01*
X183975000Y-67173400D02*
X183505000Y-67173400D01*
X183505000Y-67173400D02*
X183505000Y-67473400D01*
X183505000Y-67473400D02*
X183975000Y-67473400D01*
X183975000Y-67473400D02*
X183975000Y-67173400D01*
X183975000Y-69673400D02*
X183505000Y-69673400D01*
X183505000Y-69673400D02*
X183505000Y-69973400D01*
X183505000Y-69973400D02*
X183975000Y-69973400D01*
X183975000Y-69973400D02*
X183975000Y-69673400D01*
X183975000Y-72173400D02*
X183505000Y-72173400D01*
X183505000Y-72173400D02*
X183505000Y-72473400D01*
X183505000Y-72473400D02*
X183975000Y-72473400D01*
X183975000Y-72473400D02*
X183975000Y-72173400D01*
X179705000Y-63423400D02*
X179405000Y-62823400D01*
X179405000Y-62823400D02*
X180005000Y-62823400D01*
X180005000Y-62823400D02*
X179705000Y-63423400D01*
X180005000Y-48650000D02*
X179705000Y-49250000D01*
X179405000Y-48650000D02*
X180005000Y-48650000D01*
X179705000Y-49250000D02*
X179405000Y-48650000D01*
X183975000Y-58300000D02*
X183975000Y-58000000D01*
X183505000Y-58300000D02*
X183975000Y-58300000D01*
X183505000Y-58000000D02*
X183505000Y-58300000D01*
X183975000Y-58000000D02*
X183505000Y-58000000D01*
X183975000Y-55800000D02*
X183975000Y-55500000D01*
X183505000Y-55800000D02*
X183975000Y-55800000D01*
X183505000Y-55500000D02*
X183505000Y-55800000D01*
X183975000Y-55500000D02*
X183505000Y-55500000D01*
X183975000Y-53300000D02*
X183975000Y-53000000D01*
X183505000Y-53300000D02*
X183975000Y-53300000D01*
X183505000Y-53000000D02*
X183505000Y-53300000D01*
X183975000Y-53000000D02*
X183505000Y-53000000D01*
X183975000Y-50800000D02*
X183975000Y-50500000D01*
X183505000Y-50800000D02*
X183975000Y-50800000D01*
X183505000Y-50500000D02*
X183505000Y-50800000D01*
X183975000Y-50500000D02*
X183505000Y-50500000D01*
X192735000Y-60020000D02*
X192735000Y-48780000D01*
X183975000Y-60020000D02*
X192735000Y-60020000D01*
X183975000Y-48780000D02*
X183975000Y-60020000D01*
X192735000Y-48780000D02*
X183975000Y-48780000D01*
X113090000Y-48874400D02*
X113090000Y-49474400D01*
X112490000Y-49174400D02*
X113090000Y-48874400D01*
X113090000Y-49474400D02*
X112490000Y-49174400D01*
X105690000Y-46554400D02*
X105690000Y-77194400D01*
X111770000Y-70544400D02*
X111770000Y-73524400D01*
X111770000Y-65464400D02*
X111770000Y-68444400D01*
X111770000Y-60384400D02*
X111770000Y-63364400D01*
X111770000Y-55304400D02*
X111770000Y-58284400D01*
X111770000Y-50224400D02*
X111770000Y-53204400D01*
X111770000Y-77194400D02*
X111770000Y-75624400D01*
X111770000Y-46554400D02*
X111770000Y-48124400D01*
X102410000Y-77194400D02*
X111770000Y-77194400D01*
X102410000Y-46554400D02*
X102410000Y-77194400D01*
X111770000Y-46554400D02*
X102410000Y-46554400D01*
X149225000Y-47545000D02*
X150425000Y-47545000D01*
X150425000Y-47545000D02*
X150425000Y-50245000D01*
X145625000Y-51545000D02*
X145625000Y-47545000D01*
X145625000Y-47545000D02*
X146825000Y-47545000D01*
X143800000Y-51880000D02*
X142600000Y-51880000D01*
X143800000Y-47880000D02*
X143800000Y-51880000D01*
X139000000Y-51880000D02*
X139000000Y-49180000D01*
X140200000Y-51880000D02*
X139000000Y-51880000D01*
X122948000Y-48437400D02*
X120948000Y-48437400D01*
X120948000Y-46297400D02*
X122948000Y-46297400D01*
X140000000Y-47200000D02*
X139300000Y-47200000D01*
X139300000Y-46000000D02*
X140000000Y-46000000D01*
X149425000Y-52075000D02*
X150125000Y-52075000D01*
X150125000Y-53275000D02*
X149425000Y-53275000D01*
X145925000Y-52075000D02*
X146625000Y-52075000D01*
X146625000Y-53275000D02*
X145925000Y-53275000D01*
X143500000Y-47200000D02*
X142800000Y-47200000D01*
X142800000Y-46000000D02*
X143500000Y-46000000D01*
D12*
X115994000Y-51973000D02*
X123106000Y-51973000D01*
X123106000Y-58069000D02*
X115994000Y-58069000D01*
X116502000Y-56672000D02*
X117137000Y-56037000D01*
X115994000Y-56672000D02*
X116502000Y-56672000D01*
X117137000Y-54005000D02*
X117137000Y-56037000D01*
X116502000Y-53370000D02*
X117137000Y-54005000D01*
X115994000Y-53370000D02*
X116502000Y-53370000D01*
X123106000Y-58069000D02*
X123106000Y-56799000D01*
X123106000Y-51973000D02*
X123106000Y-53243000D01*
X115994000Y-51973000D02*
X115994000Y-53370000D01*
X115994000Y-56672000D02*
X115994000Y-58069000D01*
X116629000Y-56545000D02*
X116629000Y-53497000D01*
X116629000Y-63022000D02*
X116629000Y-59974000D01*
X115994000Y-63149000D02*
X115994000Y-64546000D01*
X115994000Y-58450000D02*
X115994000Y-59847000D01*
X123106000Y-58450000D02*
X123106000Y-59720000D01*
X123106000Y-64546000D02*
X123106000Y-63276000D01*
X115994000Y-59847000D02*
X116502000Y-59847000D01*
X116502000Y-59847000D02*
X117137000Y-60482000D01*
X117137000Y-60482000D02*
X117137000Y-62514000D01*
X115994000Y-63149000D02*
X116502000Y-63149000D01*
X116502000Y-63149000D02*
X117137000Y-62514000D01*
X123106000Y-64546000D02*
X115994000Y-64546000D01*
X115994000Y-58450000D02*
X123106000Y-58450000D01*
X115994000Y-64852000D02*
X123106000Y-64852000D01*
X123106000Y-70948000D02*
X115994000Y-70948000D01*
X116502000Y-69551000D02*
X117137000Y-68916000D01*
X115994000Y-69551000D02*
X116502000Y-69551000D01*
X117137000Y-66884000D02*
X117137000Y-68916000D01*
X116502000Y-66249000D02*
X117137000Y-66884000D01*
X115994000Y-66249000D02*
X116502000Y-66249000D01*
X123106000Y-70948000D02*
X123106000Y-69678000D01*
X123106000Y-64852000D02*
X123106000Y-66122000D01*
X115994000Y-64852000D02*
X115994000Y-66249000D01*
X115994000Y-69551000D02*
X115994000Y-70948000D01*
X116629000Y-69424000D02*
X116629000Y-66376000D01*
X154241666Y-51652380D02*
X154241666Y-52366666D01*
X154194047Y-52509523D01*
X154098809Y-52604761D01*
X153955952Y-52652380D01*
X153860714Y-52652380D01*
X154670238Y-51747619D02*
X154717857Y-51700000D01*
X154813095Y-51652380D01*
X155051190Y-51652380D01*
X155146428Y-51700000D01*
X155194047Y-51747619D01*
X155241666Y-51842857D01*
X155241666Y-51938095D01*
X155194047Y-52080952D01*
X154622619Y-52652380D01*
X155241666Y-52652380D01*
X153457142Y-54877380D02*
X153123809Y-54401190D01*
X152885714Y-54877380D02*
X152885714Y-53877380D01*
X153266666Y-53877380D01*
X153361904Y-53925000D01*
X153409523Y-53972619D01*
X153457142Y-54067857D01*
X153457142Y-54210714D01*
X153409523Y-54305952D01*
X153361904Y-54353571D01*
X153266666Y-54401190D01*
X152885714Y-54401190D01*
X154409523Y-54877380D02*
X153838095Y-54877380D01*
X154123809Y-54877380D02*
X154123809Y-53877380D01*
X154028571Y-54020238D01*
X153933333Y-54115476D01*
X153838095Y-54163095D01*
X154980952Y-54305952D02*
X154885714Y-54258333D01*
X154838095Y-54210714D01*
X154790476Y-54115476D01*
X154790476Y-54067857D01*
X154838095Y-53972619D01*
X154885714Y-53925000D01*
X154980952Y-53877380D01*
X155171428Y-53877380D01*
X155266666Y-53925000D01*
X155314285Y-53972619D01*
X155361904Y-54067857D01*
X155361904Y-54115476D01*
X155314285Y-54210714D01*
X155266666Y-54258333D01*
X155171428Y-54305952D01*
X154980952Y-54305952D01*
X154885714Y-54353571D01*
X154838095Y-54401190D01*
X154790476Y-54496428D01*
X154790476Y-54686904D01*
X154838095Y-54782142D01*
X154885714Y-54829761D01*
X154980952Y-54877380D01*
X155171428Y-54877380D01*
X155266666Y-54829761D01*
X155314285Y-54782142D01*
X155361904Y-54686904D01*
X155361904Y-54496428D01*
X155314285Y-54401190D01*
X155266666Y-54353571D01*
X155171428Y-54305952D01*
D10*
X178076190Y-61930952D02*
X178480952Y-61930952D01*
X178528571Y-61907142D01*
X178552380Y-61883333D01*
X178576190Y-61835714D01*
X178576190Y-61740476D01*
X178552380Y-61692857D01*
X178528571Y-61669047D01*
X178480952Y-61645238D01*
X178076190Y-61645238D01*
X178290476Y-61335714D02*
X178266666Y-61383333D01*
X178242857Y-61407142D01*
X178195238Y-61430952D01*
X178171428Y-61430952D01*
X178123809Y-61407142D01*
X178100000Y-61383333D01*
X178076190Y-61335714D01*
X178076190Y-61240476D01*
X178100000Y-61192857D01*
X178123809Y-61169047D01*
X178171428Y-61145238D01*
X178195238Y-61145238D01*
X178242857Y-61169047D01*
X178266666Y-61192857D01*
X178290476Y-61240476D01*
X178290476Y-61335714D01*
X178314285Y-61383333D01*
X178338095Y-61407142D01*
X178385714Y-61430952D01*
X178480952Y-61430952D01*
X178528571Y-61407142D01*
X178552380Y-61383333D01*
X178576190Y-61335714D01*
X178576190Y-61240476D01*
X178552380Y-61192857D01*
X178528571Y-61169047D01*
X178480952Y-61145238D01*
X178385714Y-61145238D01*
X178338095Y-61169047D01*
X178314285Y-61192857D01*
X178290476Y-61240476D01*
X172501190Y-76780952D02*
X172905952Y-76780952D01*
X172953571Y-76757142D01*
X172977380Y-76733333D01*
X173001190Y-76685714D01*
X173001190Y-76590476D01*
X172977380Y-76542857D01*
X172953571Y-76519047D01*
X172905952Y-76495238D01*
X172501190Y-76495238D01*
X172501190Y-76304761D02*
X172501190Y-75971428D01*
X173001190Y-76185714D01*
X163176190Y-47730952D02*
X163580952Y-47730952D01*
X163628571Y-47707142D01*
X163652380Y-47683333D01*
X163676190Y-47635714D01*
X163676190Y-47540476D01*
X163652380Y-47492857D01*
X163628571Y-47469047D01*
X163580952Y-47445238D01*
X163176190Y-47445238D01*
X163176190Y-46992857D02*
X163176190Y-47088095D01*
X163200000Y-47135714D01*
X163223809Y-47159523D01*
X163295238Y-47207142D01*
X163390476Y-47230952D01*
X163580952Y-47230952D01*
X163628571Y-47207142D01*
X163652380Y-47183333D01*
X163676190Y-47135714D01*
X163676190Y-47040476D01*
X163652380Y-46992857D01*
X163628571Y-46969047D01*
X163580952Y-46945238D01*
X163461904Y-46945238D01*
X163414285Y-46969047D01*
X163390476Y-46992857D01*
X163366666Y-47040476D01*
X163366666Y-47135714D01*
X163390476Y-47183333D01*
X163414285Y-47207142D01*
X163461904Y-47230952D01*
X172726190Y-48530952D02*
X173130952Y-48530952D01*
X173178571Y-48507142D01*
X173202380Y-48483333D01*
X173226190Y-48435714D01*
X173226190Y-48340476D01*
X173202380Y-48292857D01*
X173178571Y-48269047D01*
X173130952Y-48245238D01*
X172726190Y-48245238D01*
X173226190Y-47745238D02*
X173226190Y-48030952D01*
X173226190Y-47888095D02*
X172726190Y-47888095D01*
X172797619Y-47935714D01*
X172845238Y-47983333D01*
X172869047Y-48030952D01*
X119783333Y-76774285D02*
X119616666Y-76774285D01*
X119616666Y-77036190D02*
X119616666Y-76536190D01*
X119854761Y-76536190D01*
X120307142Y-77036190D02*
X120021428Y-77036190D01*
X120164285Y-77036190D02*
X120164285Y-76536190D01*
X120116666Y-76607619D01*
X120069047Y-76655238D01*
X120021428Y-76679047D01*
X138485047Y-50433190D02*
X138485047Y-50837952D01*
X138508857Y-50885571D01*
X138532666Y-50909380D01*
X138580285Y-50933190D01*
X138675523Y-50933190D01*
X138723142Y-50909380D01*
X138746952Y-50885571D01*
X138770761Y-50837952D01*
X138770761Y-50433190D01*
X139246952Y-50433190D02*
X139008857Y-50433190D01*
X138985047Y-50671285D01*
X139008857Y-50647476D01*
X139056476Y-50623666D01*
X139175523Y-50623666D01*
X139223142Y-50647476D01*
X139246952Y-50671285D01*
X139270761Y-50718904D01*
X139270761Y-50837952D01*
X139246952Y-50885571D01*
X139223142Y-50909380D01*
X139175523Y-50933190D01*
X139056476Y-50933190D01*
X139008857Y-50909380D01*
X138985047Y-50885571D01*
D12*
X134762380Y-50024285D02*
X134762380Y-49833809D01*
X134810000Y-49738571D01*
X134905238Y-49643333D01*
X135095714Y-49595714D01*
X135429047Y-49595714D01*
X135619523Y-49643333D01*
X135714761Y-49738571D01*
X135762380Y-49833809D01*
X135762380Y-50024285D01*
X135714761Y-50119523D01*
X135619523Y-50214761D01*
X135429047Y-50262380D01*
X135095714Y-50262380D01*
X134905238Y-50214761D01*
X134810000Y-50119523D01*
X134762380Y-50024285D01*
X135381428Y-49167142D02*
X135381428Y-48405238D01*
X135762380Y-48786190D02*
X135000476Y-48786190D01*
X132222380Y-50024285D02*
X132222380Y-49833809D01*
X132270000Y-49738571D01*
X132365238Y-49643333D01*
X132555714Y-49595714D01*
X132889047Y-49595714D01*
X133079523Y-49643333D01*
X133174761Y-49738571D01*
X133222380Y-49833809D01*
X133222380Y-50024285D01*
X133174761Y-50119523D01*
X133079523Y-50214761D01*
X132889047Y-50262380D01*
X132555714Y-50262380D01*
X132365238Y-50214761D01*
X132270000Y-50119523D01*
X132222380Y-50024285D01*
X132841428Y-49167142D02*
X132841428Y-48405238D01*
X130682380Y-49929047D02*
X129682380Y-49929047D01*
X130301428Y-49452857D02*
X130301428Y-48690952D01*
X130682380Y-49071904D02*
X129920476Y-49071904D01*
X128142380Y-49929047D02*
X127142380Y-49929047D01*
X127761428Y-49452857D02*
X127761428Y-48690952D01*
D10*
X129545047Y-57545190D02*
X129545047Y-57949952D01*
X129568857Y-57997571D01*
X129592666Y-58021380D01*
X129640285Y-58045190D01*
X129735523Y-58045190D01*
X129783142Y-58021380D01*
X129806952Y-57997571D01*
X129830761Y-57949952D01*
X129830761Y-57545190D01*
X130283142Y-57711857D02*
X130283142Y-58045190D01*
X130164095Y-57521380D02*
X130045047Y-57878523D01*
X130354571Y-57878523D01*
D12*
X138642948Y-65672308D02*
X138642948Y-64148308D01*
X138642948Y-64874022D02*
X139513805Y-64874022D01*
X139513805Y-65672308D02*
X139513805Y-64148308D01*
X140239520Y-65672308D02*
X140239520Y-64656308D01*
X140239520Y-64148308D02*
X140166948Y-64220880D01*
X140239520Y-64293451D01*
X140312091Y-64220880D01*
X140239520Y-64148308D01*
X140239520Y-64293451D01*
X140965234Y-65091737D02*
X142126377Y-65091737D01*
X143577805Y-65672308D02*
X142852091Y-65672308D01*
X142852091Y-64148308D01*
X144085805Y-65672308D02*
X144085805Y-64656308D01*
X144085805Y-64148308D02*
X144013234Y-64220880D01*
X144085805Y-64293451D01*
X144158377Y-64220880D01*
X144085805Y-64148308D01*
X144085805Y-64293451D01*
X144811520Y-64656308D02*
X144811520Y-65672308D01*
X144811520Y-64801451D02*
X144884091Y-64728880D01*
X145029234Y-64656308D01*
X145246948Y-64656308D01*
X145392091Y-64728880D01*
X145464662Y-64874022D01*
X145464662Y-65672308D01*
X146190377Y-65672308D02*
X146190377Y-64148308D01*
X146335520Y-65091737D02*
X146770948Y-65672308D01*
X146770948Y-64656308D02*
X146190377Y-65236880D01*
X147061234Y-65817451D02*
X148222377Y-65817451D01*
X148512662Y-65599737D02*
X148730377Y-65672308D01*
X149093234Y-65672308D01*
X149238377Y-65599737D01*
X149310948Y-65527165D01*
X149383520Y-65382022D01*
X149383520Y-65236880D01*
X149310948Y-65091737D01*
X149238377Y-65019165D01*
X149093234Y-64946594D01*
X148802948Y-64874022D01*
X148657805Y-64801451D01*
X148585234Y-64728880D01*
X148512662Y-64583737D01*
X148512662Y-64438594D01*
X148585234Y-64293451D01*
X148657805Y-64220880D01*
X148802948Y-64148308D01*
X149165805Y-64148308D01*
X149383520Y-64220880D01*
X150036662Y-65672308D02*
X150036662Y-64148308D01*
X150544662Y-65236880D01*
X151052662Y-64148308D01*
X151052662Y-65672308D01*
X151778377Y-65672308D02*
X151778377Y-64148308D01*
X152358948Y-64148308D01*
X152504091Y-64220880D01*
X152576662Y-64293451D01*
X152649234Y-64438594D01*
X152649234Y-64656308D01*
X152576662Y-64801451D01*
X152504091Y-64874022D01*
X152358948Y-64946594D01*
X151778377Y-64946594D01*
X153229805Y-65599737D02*
X153447520Y-65672308D01*
X153810377Y-65672308D01*
X153955520Y-65599737D01*
X154028091Y-65527165D01*
X154100662Y-65382022D01*
X154100662Y-65236880D01*
X154028091Y-65091737D01*
X153955520Y-65019165D01*
X153810377Y-64946594D01*
X153520091Y-64874022D01*
X153374948Y-64801451D01*
X153302377Y-64728880D01*
X153229805Y-64583737D01*
X153229805Y-64438594D01*
X153302377Y-64293451D01*
X153374948Y-64220880D01*
X153520091Y-64148308D01*
X153882948Y-64148308D01*
X154100662Y-64220880D01*
D10*
X191783333Y-61901190D02*
X191783333Y-62258333D01*
X191759523Y-62329761D01*
X191711904Y-62377380D01*
X191640476Y-62401190D01*
X191592857Y-62401190D01*
X192259523Y-61901190D02*
X192021428Y-61901190D01*
X191997619Y-62139285D01*
X192021428Y-62115476D01*
X192069047Y-62091666D01*
X192188095Y-62091666D01*
X192235714Y-62115476D01*
X192259523Y-62139285D01*
X192283333Y-62186904D01*
X192283333Y-62305952D01*
X192259523Y-62353571D01*
X192235714Y-62377380D01*
X192188095Y-62401190D01*
X192069047Y-62401190D01*
X192021428Y-62377380D01*
X191997619Y-62353571D01*
X192033333Y-60380790D02*
X192033333Y-60737933D01*
X192009523Y-60809361D01*
X191961904Y-60856980D01*
X191890476Y-60880790D01*
X191842857Y-60880790D01*
X192223809Y-60380790D02*
X192533333Y-60380790D01*
X192366666Y-60571266D01*
X192438095Y-60571266D01*
X192485714Y-60595076D01*
X192509523Y-60618885D01*
X192533333Y-60666504D01*
X192533333Y-60785552D01*
X192509523Y-60833171D01*
X192485714Y-60856980D01*
X192438095Y-60880790D01*
X192295238Y-60880790D01*
X192247619Y-60856980D01*
X192223809Y-60833171D01*
X113016190Y-62041066D02*
X113373333Y-62041066D01*
X113444761Y-62064876D01*
X113492380Y-62112495D01*
X113516190Y-62183923D01*
X113516190Y-62231542D01*
X113516190Y-61541066D02*
X113516190Y-61826780D01*
X113516190Y-61683923D02*
X113016190Y-61683923D01*
X113087619Y-61731542D01*
X113135238Y-61779161D01*
X113159047Y-61826780D01*
X145664047Y-46311190D02*
X145664047Y-46715952D01*
X145687857Y-46763571D01*
X145711666Y-46787380D01*
X145759285Y-46811190D01*
X145854523Y-46811190D01*
X145902142Y-46787380D01*
X145925952Y-46763571D01*
X145949761Y-46715952D01*
X145949761Y-46311190D01*
X146164047Y-46358809D02*
X146187857Y-46335000D01*
X146235476Y-46311190D01*
X146354523Y-46311190D01*
X146402142Y-46335000D01*
X146425952Y-46358809D01*
X146449761Y-46406428D01*
X146449761Y-46454047D01*
X146425952Y-46525476D01*
X146140238Y-46811190D01*
X146449761Y-46811190D01*
X143029047Y-52596190D02*
X143029047Y-53000952D01*
X143052857Y-53048571D01*
X143076666Y-53072380D01*
X143124285Y-53096190D01*
X143219523Y-53096190D01*
X143267142Y-53072380D01*
X143290952Y-53048571D01*
X143314761Y-53000952D01*
X143314761Y-52596190D01*
X143505238Y-52596190D02*
X143814761Y-52596190D01*
X143648095Y-52786666D01*
X143719523Y-52786666D01*
X143767142Y-52810476D01*
X143790952Y-52834285D01*
X143814761Y-52881904D01*
X143814761Y-53000952D01*
X143790952Y-53048571D01*
X143767142Y-53072380D01*
X143719523Y-53096190D01*
X143576666Y-53096190D01*
X143529047Y-53072380D01*
X143505238Y-53048571D01*
X118254666Y-47163590D02*
X118016571Y-47163590D01*
X118016571Y-46663590D01*
X118683238Y-47163590D02*
X118397523Y-47163590D01*
X118540380Y-47163590D02*
X118540380Y-46663590D01*
X118492761Y-46735019D01*
X118445142Y-46782638D01*
X118397523Y-46806447D01*
X138166666Y-48028571D02*
X138142857Y-48052380D01*
X138071428Y-48076190D01*
X138023809Y-48076190D01*
X137952380Y-48052380D01*
X137904761Y-48004761D01*
X137880952Y-47957142D01*
X137857142Y-47861904D01*
X137857142Y-47790476D01*
X137880952Y-47695238D01*
X137904761Y-47647619D01*
X137952380Y-47600000D01*
X138023809Y-47576190D01*
X138071428Y-47576190D01*
X138142857Y-47600000D01*
X138166666Y-47623809D01*
X138619047Y-47576190D02*
X138380952Y-47576190D01*
X138357142Y-47814285D01*
X138380952Y-47790476D01*
X138428571Y-47766666D01*
X138547619Y-47766666D01*
X138595238Y-47790476D01*
X138619047Y-47814285D01*
X138642857Y-47861904D01*
X138642857Y-47980952D01*
X138619047Y-48028571D01*
X138595238Y-48052380D01*
X138547619Y-48076190D01*
X138428571Y-48076190D01*
X138380952Y-48052380D01*
X138357142Y-48028571D01*
X149679666Y-54123571D02*
X149655857Y-54147380D01*
X149584428Y-54171190D01*
X149536809Y-54171190D01*
X149465380Y-54147380D01*
X149417761Y-54099761D01*
X149393952Y-54052142D01*
X149370142Y-53956904D01*
X149370142Y-53885476D01*
X149393952Y-53790238D01*
X149417761Y-53742619D01*
X149465380Y-53695000D01*
X149536809Y-53671190D01*
X149584428Y-53671190D01*
X149655857Y-53695000D01*
X149679666Y-53718809D01*
X150108238Y-53671190D02*
X150013000Y-53671190D01*
X149965380Y-53695000D01*
X149941571Y-53718809D01*
X149893952Y-53790238D01*
X149870142Y-53885476D01*
X149870142Y-54075952D01*
X149893952Y-54123571D01*
X149917761Y-54147380D01*
X149965380Y-54171190D01*
X150060619Y-54171190D01*
X150108238Y-54147380D01*
X150132047Y-54123571D01*
X150155857Y-54075952D01*
X150155857Y-53956904D01*
X150132047Y-53909285D01*
X150108238Y-53885476D01*
X150060619Y-53861666D01*
X149965380Y-53861666D01*
X149917761Y-53885476D01*
X149893952Y-53909285D01*
X149870142Y-53956904D01*
X146445666Y-54123571D02*
X146421857Y-54147380D01*
X146350428Y-54171190D01*
X146302809Y-54171190D01*
X146231380Y-54147380D01*
X146183761Y-54099761D01*
X146159952Y-54052142D01*
X146136142Y-53956904D01*
X146136142Y-53885476D01*
X146159952Y-53790238D01*
X146183761Y-53742619D01*
X146231380Y-53695000D01*
X146302809Y-53671190D01*
X146350428Y-53671190D01*
X146421857Y-53695000D01*
X146445666Y-53718809D01*
X146612333Y-53671190D02*
X146945666Y-53671190D01*
X146731380Y-54171190D01*
X144516666Y-47978571D02*
X144492857Y-48002380D01*
X144421428Y-48026190D01*
X144373809Y-48026190D01*
X144302380Y-48002380D01*
X144254761Y-47954761D01*
X144230952Y-47907142D01*
X144207142Y-47811904D01*
X144207142Y-47740476D01*
X144230952Y-47645238D01*
X144254761Y-47597619D01*
X144302380Y-47550000D01*
X144373809Y-47526190D01*
X144421428Y-47526190D01*
X144492857Y-47550000D01*
X144516666Y-47573809D01*
X144802380Y-47740476D02*
X144754761Y-47716666D01*
X144730952Y-47692857D01*
X144707142Y-47645238D01*
X144707142Y-47621428D01*
X144730952Y-47573809D01*
X144754761Y-47550000D01*
X144802380Y-47526190D01*
X144897619Y-47526190D01*
X144945238Y-47550000D01*
X144969047Y-47573809D01*
X144992857Y-47621428D01*
X144992857Y-47645238D01*
X144969047Y-47692857D01*
X144945238Y-47716666D01*
X144897619Y-47740476D01*
X144802380Y-47740476D01*
X144754761Y-47764285D01*
X144730952Y-47788095D01*
X144707142Y-47835714D01*
X144707142Y-47930952D01*
X144730952Y-47978571D01*
X144754761Y-48002380D01*
X144802380Y-48026190D01*
X144897619Y-48026190D01*
X144945238Y-48002380D01*
X144969047Y-47978571D01*
X144992857Y-47930952D01*
X144992857Y-47835714D01*
X144969047Y-47788095D01*
X144945238Y-47764285D01*
X144897619Y-47740476D01*
X121041110Y-55318619D02*
X120803015Y-55485285D01*
X121041110Y-55604333D02*
X120541110Y-55604333D01*
X120541110Y-55413857D01*
X120564920Y-55366238D01*
X120588729Y-55342428D01*
X120636348Y-55318619D01*
X120707777Y-55318619D01*
X120755396Y-55342428D01*
X120779205Y-55366238D01*
X120803015Y-55413857D01*
X120803015Y-55604333D01*
X120541110Y-55175761D02*
X121041110Y-55009095D01*
X120541110Y-54842428D01*
X121041110Y-54413857D02*
X121041110Y-54699571D01*
X121041110Y-54556714D02*
X120541110Y-54556714D01*
X120612539Y-54604333D01*
X120660158Y-54651952D01*
X120683967Y-54699571D01*
X121041110Y-61795619D02*
X120803015Y-61962285D01*
X121041110Y-62081333D02*
X120541110Y-62081333D01*
X120541110Y-61890857D01*
X120564920Y-61843238D01*
X120588729Y-61819428D01*
X120636348Y-61795619D01*
X120707777Y-61795619D01*
X120755396Y-61819428D01*
X120779205Y-61843238D01*
X120803015Y-61890857D01*
X120803015Y-62081333D01*
X120541110Y-61652761D02*
X121041110Y-61486095D01*
X120541110Y-61319428D01*
X120588729Y-61176571D02*
X120564920Y-61152761D01*
X120541110Y-61105142D01*
X120541110Y-60986095D01*
X120564920Y-60938476D01*
X120588729Y-60914666D01*
X120636348Y-60890857D01*
X120683967Y-60890857D01*
X120755396Y-60914666D01*
X121041110Y-61200380D01*
X121041110Y-60890857D01*
X121041110Y-68197619D02*
X120803015Y-68364285D01*
X121041110Y-68483333D02*
X120541110Y-68483333D01*
X120541110Y-68292857D01*
X120564920Y-68245238D01*
X120588729Y-68221428D01*
X120636348Y-68197619D01*
X120707777Y-68197619D01*
X120755396Y-68221428D01*
X120779205Y-68245238D01*
X120803015Y-68292857D01*
X120803015Y-68483333D01*
X120541110Y-68054761D02*
X121041110Y-67888095D01*
X120541110Y-67721428D01*
X120541110Y-67602380D02*
X120541110Y-67292857D01*
X120731586Y-67459523D01*
X120731586Y-67388095D01*
X120755396Y-67340476D01*
X120779205Y-67316666D01*
X120826824Y-67292857D01*
X120945872Y-67292857D01*
X120993491Y-67316666D01*
X121017300Y-67340476D01*
X121041110Y-67388095D01*
X121041110Y-67530952D01*
X121017300Y-67578571D01*
X120993491Y-67602380D01*
M02*
