M48
INCH,TZ
T1C0.0157
T2C0.0276
T3C0.0315
T4C0.0354
T5C0.0472
T6C0.0630
T7C0.0925
%
G90
G05
T1
X49358Y-26513
X54911Y-19813
X54911Y-20276
X54911Y-20738
X56398Y-19823
X56398Y-20305
X56398Y-20787
X57480Y-18307
X57480Y-18799
X57480Y-19291
X59055Y-18307
X59055Y-18799
X59055Y-19291
X59913Y-20616
X60190Y-22366
X62579Y-26319
X62598Y-27736
X63037Y-24928
X64246Y-23317
X67185Y-19063
X68081Y-24247
X68897Y-28634
X69016Y-30030
T2
X64913Y-20991
X64913Y-21779
X64913Y-22566
X64913Y-23353
X64913Y-24928
X64913Y-25716
X64913Y-26503
X64913Y-27290
X64913Y-28078
X65700Y-21385
X65700Y-22172
X65700Y-22960
X65700Y-24534
X65700Y-25322
X65700Y-26109
X65700Y-26897
X65700Y-27684
X65700Y-28471
X66684Y-21404
X66684Y-22192
X66684Y-22979
X66684Y-24554
X66684Y-25341
X66684Y-26129
X66684Y-26916
X66684Y-27704
X66684Y-28491
X67472Y-21011
X67472Y-21798
X67472Y-22586
X67472Y-23373
X67472Y-24948
X67472Y-25735
X67472Y-26523
X67472Y-27310
X67472Y-28097
T3
X51137Y-24878
X46240Y-29331
X48209Y-29331
X51137Y-26846
X62712Y-22830
X62712Y-28893
T4
X50272Y-20413
X51272Y-20413
X52272Y-20413
X53272Y-20413
T5
X43500Y-19360
X70750Y-19941
X70750Y-20925
X70750Y-21909
X70750Y-22894
X71734Y-19941
X71734Y-20925
X71734Y-21909
X71734Y-22894
X71734Y-28474
X43500Y-21360
X43500Y-23360
X43500Y-25360
X70750Y-25521
X70750Y-26505
X70750Y-27490
X70750Y-28474
X71734Y-25521
X71734Y-26505
X71734Y-27490
X43500Y-27360
X43500Y-29360
T6
X74561Y-25521
X74561Y-19941
X74561Y-22894
X74561Y-28474
T7
X66192Y-20302
X66192Y-23904
T0
M30
