G04 #@! TF.GenerationSoftware,KiCad,Pcbnew,(2018-02-15 revision 29b28de31)-makepkg*
G04 #@! TF.CreationDate,2019-05-03T22:38:47+03:00*
G04 #@! TF.ProjectId,din_power_atm90e26,64696E5F706F7765725F61746D393065,rev?*
G04 #@! TF.SameCoordinates,Original*
G04 #@! TF.FileFunction,Paste,Bot*
G04 #@! TF.FilePolarity,Positive*
%FSLAX46Y46*%
G04 Gerber Fmt 4.6, Leading zero omitted, Abs format (unit mm)*
G04 Created by KiCad (PCBNEW (2018-02-15 revision 29b28de31)-makepkg) date 05/03/19 22:38:47*
%MOMM*%
%LPD*%
G01*
G04 APERTURE LIST*
%ADD10R,0.500000X0.900000*%
%ADD11R,0.900000X1.700000*%
%ADD12R,0.800000X0.750000*%
G04 APERTURE END LIST*
D10*
X185950000Y-64825000D03*
X184450000Y-64825000D03*
X185950000Y-72325000D03*
X184450000Y-72325000D03*
X185950000Y-69825000D03*
X184450000Y-69825000D03*
X175950000Y-72325000D03*
X177450000Y-72325000D03*
X175950000Y-69825000D03*
X177450000Y-69825000D03*
X175950000Y-67325000D03*
X177450000Y-67325000D03*
X184450000Y-67325000D03*
X185950000Y-67325000D03*
X175950000Y-64825000D03*
X177450000Y-64825000D03*
D11*
X144750000Y-65100000D03*
X147650000Y-65100000D03*
X150550000Y-75550000D03*
X153450000Y-75550000D03*
X153450000Y-70450000D03*
X150550000Y-70450000D03*
X153450000Y-65100000D03*
X150550000Y-65100000D03*
X147650000Y-75550000D03*
X144750000Y-75550000D03*
X144750000Y-70450000D03*
X147650000Y-70450000D03*
X141850000Y-70450000D03*
X138950000Y-70450000D03*
X138950000Y-75550000D03*
X141850000Y-75550000D03*
X118950000Y-67950000D03*
X116050000Y-67950000D03*
X118950000Y-52700000D03*
X116050000Y-52700000D03*
X138950000Y-65100000D03*
X141850000Y-65100000D03*
X118950000Y-60300000D03*
X116050000Y-60300000D03*
D12*
X163050000Y-73150000D03*
X161550000Y-73150000D03*
X162000000Y-65050000D03*
X160500000Y-65050000D03*
X162200000Y-68550000D03*
X160700000Y-68550000D03*
D10*
X163050000Y-75050000D03*
X161550000Y-75050000D03*
X162000000Y-66800000D03*
X160500000Y-66800000D03*
X162200000Y-70300000D03*
X160700000Y-70300000D03*
M02*
